{
	"asset":{
		"generator":"Khronos glTF Blender I/O v3.6.28",
		"version":"2.0"
	},
	"extensionsUsed":[
		"KHR_materials_emissive_strength",
		"KHR_materials_specular",
		"KHR_materials_ior"
	],
	"scene":0,
	"scenes":[
		{
			"name":"Scene",
			"nodes":[
				0,
				1
			]
		}
	],
	"nodes":[
		{
			"mesh":0,
			"name":"Logo_luz",
			"scale":[
				0.9315997362136841,
				0.9315998554229736,
				0.9315998554229736
			],
			"translation":[
				0.8449089527130127,
				0.494855135679245,
				-0.029888805001974106
			]
		},
		{
			"mesh":1,
			"name":"Cuerpo",
			"scale":[
				0.011757119558751583,
				0.03270195052027702,
				0.011757119558751583
			],
			"translation":[
				0.3536049425601959,
				0.5389533638954163,
				0.002738919109106064
			]
		}
	],
	"animations":[
		{
			"channels":[
				{
					"sampler":0,
					"target":{
						"node":0,
						"path":"translation"
					}
				},
				{
					"sampler":1,
					"target":{
						"node":0,
						"path":"rotation"
					}
				},
				{
					"sampler":2,
					"target":{
						"node":0,
						"path":"scale"
					}
				}
			],
			"name":"Logo_luzAction",
			"samplers":[
				{
					"input":64,
					"interpolation":"STEP",
					"output":65
				},
				{
					"input":66,
					"interpolation":"LINEAR",
					"output":67
				},
				{
					"input":64,
					"interpolation":"STEP",
					"output":68
				}
			]
		}
	],
	"materials":[
		{
			"doubleSided":true,
			"emissiveFactor":[
				1,
				1,
				1
			],
			"emissiveTexture":{
				"index":0
			},
			"extensions":{
				"KHR_materials_emissive_strength":{
					"emissiveStrength":5
				}
			},
			"name":"Material",
			"pbrMetallicRoughness":{
				"baseColorTexture":{
					"index":1
				},
				"metallicFactor":0,
				"roughnessFactor":0.14566928148269653
			}
		},
		{
			"doubleSided":true,
			"extensions":{
				"KHR_materials_specular":{
					"specularColorFactor":[
						2.371357614441398,
						2.371357614441398,
						2.371357614441398
					]
				},
				"KHR_materials_ior":{
					"ior":1.4500000476837158
				}
			},
			"name":"white",
			"pbrMetallicRoughness":{
				"metallicFactor":0,
				"roughnessFactor":0.6377949714660645
			}
		},
		{
			"doubleSided":true,
			"name":"blackCristal",
			"pbrMetallicRoughness":{
				"baseColorFactor":[
					0,
					0,
					0,
					1
				],
				"metallicFactor":0,
				"roughnessFactor":0
			}
		},
		{
			"doubleSided":true,
			"name":"gray",
			"pbrMetallicRoughness":{
				"baseColorFactor":[
					0.0985042080283165,
					0.0985042080283165,
					0.0985042080283165,
					1
				],
				"metallicFactor":0
			}
		},
		{
			"doubleSided":true,
			"name":"yellow",
			"pbrMetallicRoughness":{
				"baseColorFactor":[
					0.8000000715255737,
					0.5490707159042358,
					0,
					1
				],
				"metallicFactor":0,
				"roughnessFactor":0.5
			}
		},
		{
			"doubleSided":true,
			"name":"Upurple",
			"pbrMetallicRoughness":{
				"baseColorFactor":[
					0.08865507692098618,
					0.06124570593237877,
					0.7912978529930115,
					1
				],
				"metallicFactor":0,
				"roughnessFactor":0.5
			}
		},
		{
			"doubleSided":true,
			"name":"black",
			"pbrMetallicRoughness":{
				"baseColorFactor":[
					0,
					0,
					0,
					1
				],
				"metallicFactor":0,
				"roughnessFactor":0.5
			}
		},
		{
			"doubleSided":true,
			"extensions":{
				"KHR_materials_specular":{
					"specularColorFactor":[
						1.4284162264226559,
						1.4284162264226559,
						1.4284162264226559
					]
				},
				"KHR_materials_ior":{
					"ior":1.4500000476837158
				}
			},
			"name":"Bronce",
			"pbrMetallicRoughness":{
				"baseColorFactor":[
					1,
					0.34702593088150024,
					0.0028884310740977526,
					1
				],
				"roughnessFactor":0
			}
		},
		{
			"doubleSided":true,
			"name":"Material.004",
			"pbrMetallicRoughness":{
				"baseColorTexture":{
					"index":2
				},
				"metallicFactor":0,
				"roughnessFactor":0.5
			}
		},
		{
			"doubleSided":true,
			"extensions":{
				"KHR_materials_specular":{
					"specularColorFactor":[
						1.596465252437527,
						1.596465252437527,
						1.596465252437527
					]
				},
				"KHR_materials_ior":{
					"ior":1.4500000476837158
				}
			},
			"name":"Plata",
			"pbrMetallicRoughness":{
				"baseColorFactor":[
					0.2597988247871399,
					0.2597988247871399,
					0.2597988247871399,
					1
				],
				"roughnessFactor":0.07480300217866898
			}
		},
		{
			"doubleSided":true,
			"name":"BotonON",
			"pbrMetallicRoughness":{
				"baseColorFactor":[
					0.800000011920929,
					0.800000011920929,
					0.800000011920929,
					1
				],
				"metallicFactor":0.11811023950576782,
				"roughnessFactor":0.16535432636737823
			}
		},
		{
			"doubleSided":true,
			"name":"Material.001",
			"pbrMetallicRoughness":{
				"baseColorFactor":[
					0,
					0,
					0,
					1
				],
				"metallicFactor":0.5511807799339294,
				"roughnessFactor":0.6023620963096619
			}
		}
	],
	"meshes":[
		{
			"name":"C\u00edrculo.001",
			"primitives":[
				{
					"attributes":{
						"POSITION":0,
						"NORMAL":1,
						"TEXCOORD_0":2
					},
					"indices":3,
					"material":0
				}
			]
		},
		{
			"name":"Cubo.015",
			"primitives":[
				{
					"attributes":{
						"POSITION":4,
						"NORMAL":5,
						"TEXCOORD_0":6,
						"TEXCOORD_1":7
					},
					"indices":8,
					"material":0
				},
				{
					"attributes":{
						"POSITION":9,
						"NORMAL":10,
						"TEXCOORD_0":11,
						"TEXCOORD_1":12
					},
					"indices":13,
					"material":1
				},
				{
					"attributes":{
						"POSITION":14,
						"NORMAL":15,
						"TEXCOORD_0":16,
						"TEXCOORD_1":17
					},
					"indices":18,
					"material":2
				},
				{
					"attributes":{
						"POSITION":19,
						"NORMAL":20,
						"TEXCOORD_0":21,
						"TEXCOORD_1":22
					},
					"indices":23,
					"material":3
				},
				{
					"attributes":{
						"POSITION":24,
						"NORMAL":25,
						"TEXCOORD_0":26,
						"TEXCOORD_1":27
					},
					"indices":28,
					"material":4
				},
				{
					"attributes":{
						"POSITION":29,
						"NORMAL":30,
						"TEXCOORD_0":31,
						"TEXCOORD_1":32
					},
					"indices":33,
					"material":5
				},
				{
					"attributes":{
						"POSITION":34,
						"NORMAL":35,
						"TEXCOORD_0":36,
						"TEXCOORD_1":37
					},
					"indices":38,
					"material":6
				},
				{
					"attributes":{
						"POSITION":39,
						"NORMAL":40,
						"TEXCOORD_0":41,
						"TEXCOORD_1":42
					},
					"indices":43,
					"material":7
				},
				{
					"attributes":{
						"POSITION":44,
						"NORMAL":45,
						"TEXCOORD_0":46,
						"TEXCOORD_1":47
					},
					"indices":48,
					"material":8
				},
				{
					"attributes":{
						"POSITION":49,
						"NORMAL":50,
						"TEXCOORD_0":51,
						"TEXCOORD_1":52
					},
					"indices":53,
					"material":9
				},
				{
					"attributes":{
						"POSITION":54,
						"NORMAL":55,
						"TEXCOORD_0":56,
						"TEXCOORD_1":57
					},
					"indices":58,
					"material":10
				},
				{
					"attributes":{
						"POSITION":59,
						"NORMAL":60,
						"TEXCOORD_0":61,
						"TEXCOORD_1":62
					},
					"indices":63,
					"material":11
				}
			]
		}
	],
	"textures":[
		{
			"sampler":0,
			"source":0
		},
		{
			"sampler":0,
			"source":0
		},
		{
			"sampler":0,
			"source":1
		}
	],
	"images":[
		{
			"bufferView":4,
			"mimeType":"image/png",
			"name":"isotipoColor"
		},
		{
			"bufferView":50,
			"mimeType":"image/png",
			"name":"UwifiEtiqueta"
		}
	],
	"accessors":[
		{
			"bufferView":0,
			"componentType":5126,
			"count":54,
			"max":[
				1.1368683772161603e-13,
				0.19993603229522705,
				0.1999114453792572
			],
			"min":[
				1.1368683772161603e-13,
				-0.19988691806793213,
				-0.1999114453792572
			],
			"type":"VEC3"
		},
		{
			"bufferView":1,
			"componentType":5126,
			"count":54,
			"type":"VEC3"
		},
		{
			"bufferView":2,
			"componentType":5126,
			"count":54,
			"type":"VEC2"
		},
		{
			"bufferView":3,
			"componentType":5123,
			"count":156,
			"type":"SCALAR"
		},
		{
			"bufferView":5,
			"componentType":5126,
			"count":2304,
			"max":[
				43.01298522949219,
				14.943891525268555,
				24.486495971679688
			],
			"min":[
				36.13688659667969,
				12.31962776184082,
				11.910679817199707
			],
			"type":"VEC3"
		},
		{
			"bufferView":6,
			"componentType":5126,
			"count":2304,
			"type":"VEC3"
		},
		{
			"bufferView":7,
			"componentType":5126,
			"count":2304,
			"type":"VEC2"
		},
		{
			"bufferView":8,
			"componentType":5126,
			"count":2304,
			"type":"VEC2"
		},
		{
			"bufferView":9,
			"componentType":5123,
			"count":3456,
			"type":"SCALAR"
		},
		{
			"bufferView":10,
			"componentType":5126,
			"count":20381,
			"max":[
				42.73320007324219,
				14.700342178344727,
				36.576297760009766
			],
			"min":[
				-39.268375396728516,
				-14.649028778076172,
				-36.06291961669922
			],
			"type":"VEC3"
		},
		{
			"bufferView":11,
			"componentType":5126,
			"count":20381,
			"type":"VEC3"
		},
		{
			"bufferView":12,
			"componentType":5126,
			"count":20381,
			"type":"VEC2"
		},
		{
			"bufferView":13,
			"componentType":5126,
			"count":20381,
			"type":"VEC2"
		},
		{
			"bufferView":14,
			"componentType":5123,
			"count":40041,
			"type":"SCALAR"
		},
		{
			"bufferView":15,
			"componentType":5126,
			"count":5376,
			"max":[
				43.01298522949219,
				12.858526229858398,
				3.8649957180023193
			],
			"min":[
				42.70157241821289,
				12.31962776184082,
				-15.670585632324219
			],
			"type":"VEC3"
		},
		{
			"bufferView":16,
			"componentType":5126,
			"count":5376,
			"type":"VEC3"
		},
		{
			"bufferView":17,
			"componentType":5126,
			"count":5376,
			"type":"VEC2"
		},
		{
			"bufferView":18,
			"componentType":5126,
			"count":5376,
			"type":"VEC2"
		},
		{
			"bufferView":19,
			"componentType":5123,
			"count":8064,
			"type":"SCALAR"
		},
		{
			"bufferView":20,
			"componentType":5126,
			"count":768,
			"max":[
				32.34453201293945,
				-14.656486511230469,
				30.91689682006836
			],
			"min":[
				-32.97584915161133,
				-16.335363388061523,
				-28.202592849731445
			],
			"type":"VEC3"
		},
		{
			"bufferView":21,
			"componentType":5126,
			"count":768,
			"type":"VEC3"
		},
		{
			"bufferView":22,
			"componentType":5126,
			"count":768,
			"type":"VEC2"
		},
		{
			"bufferView":23,
			"componentType":5126,
			"count":768,
			"type":"VEC2"
		},
		{
			"bufferView":24,
			"componentType":5123,
			"count":1488,
			"type":"SCALAR"
		},
		{
			"bufferView":25,
			"componentType":5126,
			"count":628,
			"max":[
				-36.02067947387695,
				-10.511754989624023,
				26.49176025390625
			],
			"min":[
				-39.19272232055664,
				-13.303739547729492,
				-4.571409225463867
			],
			"type":"VEC3"
		},
		{
			"bufferView":26,
			"componentType":5126,
			"count":628,
			"type":"VEC3"
		},
		{
			"bufferView":27,
			"componentType":5126,
			"count":628,
			"type":"VEC2"
		},
		{
			"bufferView":28,
			"componentType":5126,
			"count":628,
			"type":"VEC2"
		},
		{
			"bufferView":29,
			"componentType":5123,
			"count":1230,
			"type":"SCALAR"
		},
		{
			"bufferView":30,
			"componentType":5126,
			"count":12864,
			"max":[
				42.657318115234375,
				13.979246139526367,
				34.2575569152832
			],
			"min":[
				-39.19272232055664,
				-13.303739547729492,
				-19.136211395263672
			],
			"type":"VEC3"
		},
		{
			"bufferView":31,
			"componentType":5126,
			"count":12864,
			"type":"VEC3"
		},
		{
			"bufferView":32,
			"componentType":5126,
			"count":12864,
			"type":"VEC2"
		},
		{
			"bufferView":33,
			"componentType":5126,
			"count":12864,
			"type":"VEC2"
		},
		{
			"bufferView":34,
			"componentType":5123,
			"count":23964,
			"type":"SCALAR"
		},
		{
			"bufferView":35,
			"componentType":5126,
			"count":1360,
			"max":[
				-34.29007339477539,
				6.438348293304443,
				25.64267921447754
			],
			"min":[
				-38.51413345336914,
				-12.685691833496094,
				-31.423063278198242
			],
			"type":"VEC3"
		},
		{
			"bufferView":36,
			"componentType":5126,
			"count":1360,
			"type":"VEC3"
		},
		{
			"bufferView":37,
			"componentType":5126,
			"count":1360,
			"type":"VEC2"
		},
		{
			"bufferView":38,
			"componentType":5126,
			"count":1360,
			"type":"VEC2"
		},
		{
			"bufferView":39,
			"componentType":5123,
			"count":3090,
			"type":"SCALAR"
		},
		{
			"bufferView":40,
			"componentType":5126,
			"count":600,
			"max":[
				-36.20021438598633,
				-12.902750015258789,
				32.09012222290039
			],
			"min":[
				-39.1740837097168,
				-13.081842422485352,
				-2.4294753074645996
			],
			"type":"VEC3"
		},
		{
			"bufferView":41,
			"componentType":5126,
			"count":600,
			"type":"VEC3"
		},
		{
			"bufferView":42,
			"componentType":5126,
			"count":600,
			"type":"VEC2"
		},
		{
			"bufferView":43,
			"componentType":5126,
			"count":600,
			"type":"VEC2"
		},
		{
			"bufferView":44,
			"componentType":5123,
			"count":900,
			"type":"SCALAR"
		},
		{
			"bufferView":45,
			"componentType":5126,
			"count":4,
			"max":[
				-38.72017288208008,
				13.460073471069336,
				0.44269514083862305
			],
			"min":[
				-38.72018814086914,
				7.213952541351318,
				-33.76165008544922
			],
			"type":"VEC3"
		},
		{
			"bufferView":46,
			"componentType":5126,
			"count":4,
			"type":"VEC3"
		},
		{
			"bufferView":47,
			"componentType":5126,
			"count":4,
			"type":"VEC2"
		},
		{
			"bufferView":48,
			"componentType":5126,
			"count":4,
			"type":"VEC2"
		},
		{
			"bufferView":49,
			"componentType":5123,
			"count":6,
			"type":"SCALAR"
		},
		{
			"bufferView":51,
			"componentType":5126,
			"count":1932,
			"max":[
				-35.43904495239258,
				-11.612081527709961,
				-28.456783294677734
			],
			"min":[
				-38.617855072021484,
				-12.396791458129883,
				-30.639419555664062
			],
			"type":"VEC3"
		},
		{
			"bufferView":52,
			"componentType":5126,
			"count":1932,
			"type":"VEC3"
		},
		{
			"bufferView":53,
			"componentType":5126,
			"count":1932,
			"type":"VEC2"
		},
		{
			"bufferView":54,
			"componentType":5126,
			"count":1932,
			"type":"VEC2"
		},
		{
			"bufferView":55,
			"componentType":5123,
			"count":3450,
			"type":"SCALAR"
		},
		{
			"bufferView":56,
			"componentType":5126,
			"count":1280,
			"max":[
				41.08031463623047,
				15.024898529052734,
				24.486495971679688
			],
			"min":[
				36.13688659667969,
				14.678426742553711,
				19.543071746826172
			],
			"type":"VEC3"
		},
		{
			"bufferView":57,
			"componentType":5126,
			"count":1280,
			"type":"VEC3"
		},
		{
			"bufferView":58,
			"componentType":5126,
			"count":1280,
			"type":"VEC2"
		},
		{
			"bufferView":59,
			"componentType":5126,
			"count":1280,
			"type":"VEC2"
		},
		{
			"bufferView":60,
			"componentType":5123,
			"count":2292,
			"type":"SCALAR"
		},
		{
			"bufferView":61,
			"componentType":5126,
			"count":2520,
			"max":[
				-38.57338333129883,
				-9.94003677368164,
				32.40373229980469
			],
			"min":[
				-38.57338333129883,
				-10.408662796020508,
				-4.130237102508545
			],
			"type":"VEC3"
		},
		{
			"bufferView":62,
			"componentType":5126,
			"count":2520,
			"type":"VEC3"
		},
		{
			"bufferView":63,
			"componentType":5126,
			"count":2520,
			"type":"VEC2"
		},
		{
			"bufferView":64,
			"componentType":5126,
			"count":2520,
			"type":"VEC2"
		},
		{
			"bufferView":65,
			"componentType":5123,
			"count":5946,
			"type":"SCALAR"
		},
		{
			"bufferView":66,
			"componentType":5126,
			"count":2,
			"max":[
				4.166666666666667
			],
			"min":[
				0.016666666666666666
			],
			"type":"SCALAR"
		},
		{
			"bufferView":67,
			"componentType":5126,
			"count":2,
			"type":"VEC3"
		},
		{
			"bufferView":68,
			"componentType":5126,
			"count":250,
			"max":[
				4.166666666666667
			],
			"min":[
				0.016666666666666666
			],
			"type":"SCALAR"
		},
		{
			"bufferView":69,
			"componentType":5126,
			"count":250,
			"type":"VEC4"
		},
		{
			"bufferView":70,
			"componentType":5126,
			"count":2,
			"type":"VEC3"
		}
	],
	"bufferViews":[
		{
			"buffer":0,
			"byteLength":648,
			"byteOffset":0,
			"target":34962
		},
		{
			"buffer":0,
			"byteLength":648,
			"byteOffset":648,
			"target":34962
		},
		{
			"buffer":0,
			"byteLength":432,
			"byteOffset":1296,
			"target":34962
		},
		{
			"buffer":0,
			"byteLength":312,
			"byteOffset":1728,
			"target":34963
		},
		{
			"buffer":0,
			"byteLength":195051,
			"byteOffset":2040
		},
		{
			"buffer":0,
			"byteLength":27648,
			"byteOffset":197092,
			"target":34962
		},
		{
			"buffer":0,
			"byteLength":27648,
			"byteOffset":224740,
			"target":34962
		},
		{
			"buffer":0,
			"byteLength":18432,
			"byteOffset":252388,
			"target":34962
		},
		{
			"buffer":0,
			"byteLength":18432,
			"byteOffset":270820,
			"target":34962
		},
		{
			"buffer":0,
			"byteLength":6912,
			"byteOffset":289252,
			"target":34963
		},
		{
			"buffer":0,
			"byteLength":244572,
			"byteOffset":296164,
			"target":34962
		},
		{
			"buffer":0,
			"byteLength":244572,
			"byteOffset":540736,
			"target":34962
		},
		{
			"buffer":0,
			"byteLength":163048,
			"byteOffset":785308,
			"target":34962
		},
		{
			"buffer":0,
			"byteLength":163048,
			"byteOffset":948356,
			"target":34962
		},
		{
			"buffer":0,
			"byteLength":80082,
			"byteOffset":1111404,
			"target":34963
		},
		{
			"buffer":0,
			"byteLength":64512,
			"byteOffset":1191488,
			"target":34962
		},
		{
			"buffer":0,
			"byteLength":64512,
			"byteOffset":1256000,
			"target":34962
		},
		{
			"buffer":0,
			"byteLength":43008,
			"byteOffset":1320512,
			"target":34962
		},
		{
			"buffer":0,
			"byteLength":43008,
			"byteOffset":1363520,
			"target":34962
		},
		{
			"buffer":0,
			"byteLength":16128,
			"byteOffset":1406528,
			"target":34963
		},
		{
			"buffer":0,
			"byteLength":9216,
			"byteOffset":1422656,
			"target":34962
		},
		{
			"buffer":0,
			"byteLength":9216,
			"byteOffset":1431872,
			"target":34962
		},
		{
			"buffer":0,
			"byteLength":6144,
			"byteOffset":1441088,
			"target":34962
		},
		{
			"buffer":0,
			"byteLength":6144,
			"byteOffset":1447232,
			"target":34962
		},
		{
			"buffer":0,
			"byteLength":2976,
			"byteOffset":1453376,
			"target":34963
		},
		{
			"buffer":0,
			"byteLength":7536,
			"byteOffset":1456352,
			"target":34962
		},
		{
			"buffer":0,
			"byteLength":7536,
			"byteOffset":1463888,
			"target":34962
		},
		{
			"buffer":0,
			"byteLength":5024,
			"byteOffset":1471424,
			"target":34962
		},
		{
			"buffer":0,
			"byteLength":5024,
			"byteOffset":1476448,
			"target":34962
		},
		{
			"buffer":0,
			"byteLength":2460,
			"byteOffset":1481472,
			"target":34963
		},
		{
			"buffer":0,
			"byteLength":154368,
			"byteOffset":1483932,
			"target":34962
		},
		{
			"buffer":0,
			"byteLength":154368,
			"byteOffset":1638300,
			"target":34962
		},
		{
			"buffer":0,
			"byteLength":102912,
			"byteOffset":1792668,
			"target":34962
		},
		{
			"buffer":0,
			"byteLength":102912,
			"byteOffset":1895580,
			"target":34962
		},
		{
			"buffer":0,
			"byteLength":47928,
			"byteOffset":1998492,
			"target":34963
		},
		{
			"buffer":0,
			"byteLength":16320,
			"byteOffset":2046420,
			"target":34962
		},
		{
			"buffer":0,
			"byteLength":16320,
			"byteOffset":2062740,
			"target":34962
		},
		{
			"buffer":0,
			"byteLength":10880,
			"byteOffset":2079060,
			"target":34962
		},
		{
			"buffer":0,
			"byteLength":10880,
			"byteOffset":2089940,
			"target":34962
		},
		{
			"buffer":0,
			"byteLength":6180,
			"byteOffset":2100820,
			"target":34963
		},
		{
			"buffer":0,
			"byteLength":7200,
			"byteOffset":2107000,
			"target":34962
		},
		{
			"buffer":0,
			"byteLength":7200,
			"byteOffset":2114200,
			"target":34962
		},
		{
			"buffer":0,
			"byteLength":4800,
			"byteOffset":2121400,
			"target":34962
		},
		{
			"buffer":0,
			"byteLength":4800,
			"byteOffset":2126200,
			"target":34962
		},
		{
			"buffer":0,
			"byteLength":1800,
			"byteOffset":2131000,
			"target":34963
		},
		{
			"buffer":0,
			"byteLength":48,
			"byteOffset":2132800,
			"target":34962
		},
		{
			"buffer":0,
			"byteLength":48,
			"byteOffset":2132848,
			"target":34962
		},
		{
			"buffer":0,
			"byteLength":32,
			"byteOffset":2132896,
			"target":34962
		},
		{
			"buffer":0,
			"byteLength":32,
			"byteOffset":2132928,
			"target":34962
		},
		{
			"buffer":0,
			"byteLength":12,
			"byteOffset":2132960,
			"target":34963
		},
		{
			"buffer":0,
			"byteLength":633325,
			"byteOffset":2132972
		},
		{
			"buffer":0,
			"byteLength":23184,
			"byteOffset":2766300,
			"target":34962
		},
		{
			"buffer":0,
			"byteLength":23184,
			"byteOffset":2789484,
			"target":34962
		},
		{
			"buffer":0,
			"byteLength":15456,
			"byteOffset":2812668,
			"target":34962
		},
		{
			"buffer":0,
			"byteLength":15456,
			"byteOffset":2828124,
			"target":34962
		},
		{
			"buffer":0,
			"byteLength":6900,
			"byteOffset":2843580,
			"target":34963
		},
		{
			"buffer":0,
			"byteLength":15360,
			"byteOffset":2850480,
			"target":34962
		},
		{
			"buffer":0,
			"byteLength":15360,
			"byteOffset":2865840,
			"target":34962
		},
		{
			"buffer":0,
			"byteLength":10240,
			"byteOffset":2881200,
			"target":34962
		},
		{
			"buffer":0,
			"byteLength":10240,
			"byteOffset":2891440,
			"target":34962
		},
		{
			"buffer":0,
			"byteLength":4584,
			"byteOffset":2901680,
			"target":34963
		},
		{
			"buffer":0,
			"byteLength":30240,
			"byteOffset":2906264,
			"target":34962
		},
		{
			"buffer":0,
			"byteLength":30240,
			"byteOffset":2936504,
			"target":34962
		},
		{
			"buffer":0,
			"byteLength":20160,
			"byteOffset":2966744,
			"target":34962
		},
		{
			"buffer":0,
			"byteLength":20160,
			"byteOffset":2986904,
			"target":34962
		},
		{
			"buffer":0,
			"byteLength":11892,
			"byteOffset":3007064,
			"target":34963
		},
		{
			"buffer":0,
			"byteLength":8,
			"byteOffset":3018956
		},
		{
			"buffer":0,
			"byteLength":24,
			"byteOffset":3018964
		},
		{
			"buffer":0,
			"byteLength":1000,
			"byteOffset":3018988
		},
		{
			"buffer":0,
			"byteLength":4000,
			"byteOffset":3019988
		},
		{
			"buffer":0,
			"byteLength":24,
			"byteOffset":3023988
		}
	],
	"samplers":[
		{
			"magFilter":9729,
			"minFilter":9987
		}
	],
	"buffers":[
		{
			"byteLength":3024012,
			"uri":"data:application/octet-stream;base64,"
		}
	]
}
