<svg width="28" height="32" viewBox="0 0 28 32" fill="none" xmlns="http://www.w3.org/2000/svg">
<path d="M13.6957 31.9565C11.7935 31.9565 10.012 31.5954 8.3513 30.873C6.69058 30.1507 5.24493 29.1743 4.01435 27.9437C2.78377 26.7131 1.80732 25.2675 1.085 23.6067C0.362681 21.946 0.00101449 20.1641 0 18.2609H3.04348C3.04348 21.2283 4.07725 23.7457 6.14478 25.8133C8.21232 27.8808 10.7293 28.9141 13.6957 28.913C16.663 28.913 19.1805 27.8798 21.248 25.8133C23.3156 23.7467 24.3488 21.2293 24.3478 18.2609C24.3478 15.2935 23.3146 12.7765 21.248 10.71C19.1815 8.64348 16.6641 7.60971 13.6957 7.6087H13.4674L15.8261 9.96739L13.6957 12.1739L7.6087 6.08696L13.6957 0L15.8261 2.20652L13.4674 4.56522H13.6957C15.5978 4.56522 17.3798 4.92688 19.0415 5.65022C20.7033 6.37355 22.1489 7.35 23.3785 8.57957C24.608 9.80913 25.5845 11.2548 26.3078 12.9165C27.0312 14.5783 27.3923 16.3597 27.3913 18.2609C27.3913 20.163 27.0301 21.945 26.3078 23.6067C25.5855 25.2685 24.6091 26.7141 23.3785 27.9437C22.1479 29.1733 20.7022 30.1497 19.0415 30.873C17.3808 31.5964 15.5988 31.9575 13.6957 31.9565ZM6.84783 22.8261V20.5435H10.6522V19.0217H8.36957V17.5H10.6522V15.9783H6.84783V13.6957H11.413C11.8442 13.6957 12.2059 13.8417 12.498 14.1339C12.7902 14.4261 12.9358 14.7872 12.9348 15.2174V21.3043C12.9348 21.7355 12.7887 22.0972 12.4965 22.3893C12.2043 22.6815 11.8432 22.8271 11.413 22.8261H6.84783ZM15.9783 22.8261C15.5471 22.8261 15.1859 22.68 14.8948 22.3878C14.6036 22.0957 14.4575 21.7345 14.4565 21.3043V15.2174C14.4565 14.7862 14.6026 14.4251 14.8948 14.1339C15.187 13.8428 15.5481 13.6967 15.9783 13.6957H19.0217C19.4529 13.6957 19.8146 13.8417 20.1067 14.1339C20.3989 14.4261 20.5445 14.7872 20.5435 15.2174V21.3043C20.5435 21.7355 20.3974 22.0972 20.1052 22.3893C19.813 22.6815 19.4519 22.8271 19.0217 22.8261H15.9783ZM16.7391 20.5435H18.2609V15.9783H16.7391V20.5435Z" fill="#24A342"/>
</svg>
