<svg width="130" height="90" viewBox="0 0 130 90" fill="none" xmlns="http://www.w3.org/2000/svg">
<path d="M0.47168 0V8.18182H77.099V69.5455H52.2708C50.4748 62.5142 44.2362 57.2727 36.7689 57.2727C29.3015 57.2727 23.0629 62.5142 21.2669 69.5455H16.6038V49.0909H8.53772V77.7273H21.2669C23.0629 84.7585 29.3015 90 36.7689 90C44.2362 90 50.4748 84.7585 52.2708 77.7273H85.7952C87.5912 84.7585 93.8298 90 101.297 90C108.765 90 115.003 84.7585 116.799 77.7273H129.528V44.3608L129.276 43.7216L121.21 19.1761L120.328 16.3636H85.1651V0H0.47168ZM4.5047 16.3636V24.5455H40.8019V16.3636H4.5047ZM85.1651 24.5455H114.531L121.462 45.5114V69.5455H116.799C115.003 62.5142 108.765 57.2727 101.297 57.2727C93.8298 57.2727 87.5912 62.5142 85.7952 69.5455H85.1651V24.5455ZM8.53772 32.7273V40.9091H32.7358V32.7273H8.53772ZM36.7689 65.4545C41.2745 65.4545 44.8349 69.066 44.8349 73.6364C44.8349 78.2067 41.2745 81.8182 36.7689 81.8182C32.2632 81.8182 28.7028 78.2067 28.7028 73.6364C28.7028 69.066 32.2632 65.4545 36.7689 65.4545ZM101.297 65.4545C105.803 65.4545 109.363 69.066 109.363 73.6364C109.363 78.2067 105.803 81.8182 101.297 81.8182C96.7915 81.8182 93.2311 78.2067 93.2311 73.6364C93.2311 69.066 96.7915 65.4545 101.297 65.4545Z" fill="#3686FF"/>
</svg>
