<svg width="128" height="103" viewBox="0 0 128 103" fill="none" xmlns="http://www.w3.org/2000/svg">
<path d="M39.8237 76.25H39.8232C37.2274 76.25 34.6898 77.0198 32.5314 78.462C30.373 79.9042 28.6907 81.954 27.6973 84.3523C26.7039 86.7506 26.444 89.3896 26.9504 91.9356C27.4569 94.4816 28.7069 96.8202 30.5425 98.6558C32.378 100.491 34.7167 101.741 37.2627 102.248C39.8087 102.754 42.4477 102.494 44.846 101.501C47.2442 100.508 49.2941 98.8253 50.7363 96.6669C52.1785 94.5085 52.9482 91.9709 52.9482 89.375V89.3745C52.9448 85.8947 51.5609 82.5585 49.1003 80.0979C46.6398 77.6373 43.3035 76.2535 39.8237 76.25ZM39.8226 95.1875C38.6732 95.1874 37.5497 94.8465 36.594 94.2079C35.6381 93.5692 34.8931 92.6614 34.4532 91.5993C34.0133 90.5372 33.8982 89.3685 34.1224 88.241C34.3467 87.1135 34.9003 86.0778 35.7132 85.2649C36.5261 84.452 37.5618 83.8985 38.6893 83.6742C39.8168 83.4499 40.9855 83.565 42.0476 84.0049C43.1097 84.4449 44.0175 85.1899 44.6562 86.1457C45.2947 87.1014 45.6356 88.225 45.6357 89.3744C45.6338 90.9155 45.0207 92.3929 43.9309 93.4827C42.8412 94.5724 41.3637 95.1855 39.8226 95.1875Z" fill="#00C637" stroke="#00C637"/>
<path d="M102.949 76.25H102.948C100.352 76.25 97.8148 77.0198 95.6564 78.462C93.498 79.9042 91.8157 81.954 90.8223 84.3523C89.8289 86.7506 89.569 89.3896 90.0754 91.9356C90.5819 94.4816 91.8319 96.8202 93.6675 98.6558C95.503 100.491 97.8417 101.741 100.388 102.248C102.934 102.754 105.573 102.494 107.971 101.501C110.369 100.508 112.419 98.8253 113.861 96.6669C115.303 94.5085 116.073 91.9709 116.073 89.375V89.3745C116.07 85.8947 114.686 82.5585 112.225 80.0979C109.765 77.6373 106.429 76.2535 102.949 76.25ZM102.948 95.1875C101.798 95.1874 100.675 94.8465 99.719 94.2079C98.7631 93.5692 98.0181 92.6614 97.5782 91.5993C97.1383 90.5372 97.0232 89.3685 97.2474 88.241C97.4717 87.1135 98.0253 86.0778 98.8382 85.2649C99.6511 84.452 100.687 83.8985 101.814 83.6742C102.942 83.4499 104.11 83.565 105.173 84.0049C106.235 84.4449 107.142 85.1899 107.781 86.1457C108.42 87.1014 108.761 88.225 108.761 89.3744C108.759 90.9155 108.146 92.3929 107.056 93.4827C105.966 94.5724 104.489 95.1855 102.948 95.1875Z" fill="#00C637" stroke="#00C637"/>
<path d="M127.12 18.5779L127.12 18.5781L123.612 50.1402L127.12 18.5779ZM127.12 18.5779C127.372 16.3023 127.141 13.9991 126.443 11.8187C125.745 9.6383 124.594 7.62963 123.067 5.92376C121.54 4.2179 119.671 2.85316 117.581 1.9186C115.491 0.984043 113.227 0.500662 110.937 0.5H110.937H55.6045C54.6348 0.5 53.7048 0.885211 53.0191 1.57089C52.3335 2.25657 51.9482 3.18655 51.9482 4.15625C51.9482 5.12595 52.3335 6.05593 53.0191 6.74161C53.7048 7.42729 54.6348 7.8125 55.6045 7.8125L110.937 7.81251L110.94 7.81249C112.202 7.80554 113.45 8.06822 114.602 8.58295C115.754 9.09768 116.782 9.85257 117.618 10.7971L117.62 10.7988C118.46 11.7392 119.093 12.8461 119.478 14.0474C119.862 15.2487 119.989 16.5174 119.85 17.7711L116.343 49.3332L116.343 49.3337C116.101 51.528 115.058 53.5559 113.413 55.0283C111.769 56.5007 109.638 57.3141 107.43 57.3125H107.43H42.9801C40.6021 57.3098 38.3223 56.364 36.6408 54.6825C34.9593 53.001 34.0134 50.7212 34.0107 48.3432V16.7812V16.7807C34.0056 12.4643 32.2886 8.3263 29.2365 5.2742C26.1844 2.22211 22.0464 0.505171 17.7301 0.5H17.7295H5.10449C4.13479 0.5 3.20481 0.885212 2.51913 1.57089C1.83345 2.25657 1.44824 3.18655 1.44824 4.15625C1.44824 5.12595 1.83345 6.05593 2.51913 6.74161C3.20481 7.42729 4.13479 7.8125 5.10449 7.8125L17.7289 7.8125C17.7291 7.8125 17.7292 7.8125 17.7293 7.8125C20.1072 7.8153 22.3868 8.76113 24.0682 10.4425C25.7497 12.124 26.6956 14.4038 26.6982 16.7818V48.3438V48.3443C26.7034 52.6607 28.4204 56.7987 31.4724 59.8508C34.5245 62.9029 38.6626 64.6198 42.9789 64.625H42.9795M127.12 18.5779L42.9795 64.625M42.9795 64.625H107.43M42.9795 64.625H107.43M107.43 64.625C111.438 64.6281 115.306 63.1516 118.292 60.4785C121.278 57.8055 123.173 54.1243 123.612 50.1406L107.43 64.625Z" fill="#00C637" stroke="#00C637"/>
</svg>
