<svg width="29" height="21" viewBox="0 0 29 21" fill="none" xmlns="http://www.w3.org/2000/svg">
<circle cx="7.12598" cy="15.7871" r="5" fill="#24A342"/>
<path d="M2.70806 0.621719C1.67503 0.230669 0.520581 0.751097 0.129531 1.78413C-0.261519 2.81716 0.25891 3.97161 1.29194 4.36266L2.70806 0.621719ZM10.5644 19.7547C12.0389 17.204 12.3885 13.3348 11.3044 9.73694C10.1897 6.03742 7.50772 2.43861 2.70806 0.621719L1.29194 4.36266C4.79388 5.6883 6.67485 8.23695 7.47449 10.8909C8.30475 13.6465 7.91993 16.3368 7.10139 17.7527L10.5644 19.7547Z" fill="#24A342"/>
<circle cx="23.126" cy="15.7871" r="5" fill="#24A342"/>
<path d="M18.7081 0.621719C17.675 0.230669 16.5206 0.751097 16.1295 1.78413C15.7385 2.81716 16.2589 3.97161 17.2919 4.36266L18.7081 0.621719ZM26.5644 19.7547C28.0389 17.204 28.3885 13.3348 27.3044 9.73694C26.1897 6.03742 23.5077 2.43861 18.7081 0.621719L17.2919 4.36266C20.7939 5.6883 22.6748 8.23695 23.4745 10.8909C24.3047 13.6465 23.9199 16.3368 23.1014 17.7527L26.5644 19.7547Z" fill="#24A342"/>
</svg>
