<svg width="102" height="101" viewBox="0 0 102 101" fill="none" xmlns="http://www.w3.org/2000/svg">
<path d="M54.7029 54.5367L46.1245 63.115L38.0508 55.0413L46.6291 46.4629C47.3579 45.4912 47.7118 44.2892 47.6257 43.0775C47.5396 41.8659 47.0193 40.726 46.1604 39.8671C45.3015 39.0082 44.1616 38.488 42.95 38.4019C41.7384 38.3158 40.5363 38.6696 39.5646 39.3984L30.9862 47.9767L27.7063 44.6968C27.2572 44.2074 26.7114 43.8166 26.1033 43.5493C25.4952 43.2819 24.8382 43.1439 24.174 43.1439C23.5098 43.1439 22.8528 43.2819 22.2447 43.5493C21.6367 43.8166 21.0908 44.2074 20.6418 44.6968L13.0726 52.2659C10.6962 54.5557 8.80221 57.298 7.50225 60.3313C6.2023 63.3645 5.52268 66.6273 5.50346 69.9273C5.41142 75.0098 7.00874 79.9793 10.045 84.0563L1.71889 92.3824C1.22946 92.8314 0.838693 93.3773 0.571373 93.9854C0.304053 94.5934 0.166016 95.2504 0.166016 95.9146C0.166016 96.5789 0.304053 97.2359 0.571373 97.8439C0.838693 98.452 1.22946 98.9979 1.71889 99.4469C2.16795 99.9364 2.71383 100.327 3.32189 100.594C3.92995 100.862 4.58693 101 5.25116 101C5.91539 101 6.57237 100.862 7.18043 100.594C7.78849 100.327 8.33436 99.9364 8.78343 99.4469L16.8572 91.3732C21.1941 94.4918 26.4014 96.1687 31.7432 96.167C38.4388 96.1512 44.8648 93.5266 49.6568 88.8501L57.2259 81.281C58.1767 80.3493 58.7208 79.0797 58.7398 77.7487C58.7795 77.0828 58.6634 76.4167 58.4006 75.8035C58.1378 75.1904 57.7356 74.6469 57.2259 74.2164L53.1891 70.1796L61.7674 61.6012C62.4962 60.6295 62.8501 59.4275 62.764 58.2158C62.6778 57.0042 62.1576 55.8643 61.2987 55.0054C60.4398 54.1465 59.2999 53.6263 58.0883 53.5401C56.8766 53.454 55.6746 53.8079 54.7029 54.5367ZM42.5923 81.7856C39.7199 84.5753 35.8734 86.1359 31.8693 86.1359C27.8652 86.1359 24.0187 84.5753 21.1464 81.7856L20.1371 80.7764C17.3133 77.8595 15.6918 73.986 15.5957 69.9273C15.6525 65.9342 17.2849 62.1255 20.1371 59.3305L24.174 55.2936L46.3768 77.7487L42.5923 81.7856Z" fill="#9F69FF"/>
<path d="M99.6132 1.55288C99.1641 1.06345 98.6183 0.672677 98.0102 0.405357C97.4021 0.138037 96.7451 0 96.0809 0C95.4167 0 94.7597 0.138037 94.1516 0.405357C93.5436 0.672677 92.9977 1.06345 92.5486 1.55288L83.9703 10.1312C79.1343 6.52675 73.167 4.77396 67.1498 5.19053C61.1327 5.60711 55.4639 8.16547 51.1707 12.402L43.6015 19.9711C42.6508 20.9028 42.1067 22.1724 42.0877 23.5034C42.0479 24.1693 42.1641 24.8354 42.4269 25.4486C42.6897 26.0617 43.0919 26.6052 43.6015 27.0357L73.1212 56.5553C73.5703 57.0447 74.1161 57.4355 74.7242 57.7028C75.3322 57.9702 75.9892 58.1082 76.6535 58.1082C77.3177 58.1082 77.9747 57.9702 78.5827 57.7028C79.1908 57.4355 79.7367 57.0447 80.1857 56.5553L87.7549 49.2385C90.1046 46.8893 91.9621 44.0949 93.2184 41.019C94.4748 37.943 95.1049 34.6473 95.0717 31.3248C95.0515 26.4126 93.6529 21.6046 91.0348 17.4481L99.6132 8.61741C100.103 8.16835 100.493 7.62248 100.761 7.01441C101.028 6.40635 101.166 5.74937 101.166 5.08514C101.166 4.42092 101.028 3.76394 100.761 3.15587C100.493 2.54781 100.103 2.00194 99.6132 1.55288ZM80.6903 41.9216L76.6535 45.9585L54.1983 23.5034L58.2352 19.7188C59.624 18.2766 61.2894 17.1293 63.1319 16.3456C64.9743 15.562 66.956 15.1581 68.9582 15.1581C70.9604 15.1581 72.942 15.562 74.7844 16.3456C76.6269 17.1293 78.2923 18.2766 79.6811 19.7188L80.6903 20.4757C83.4435 23.4178 84.9765 27.2955 84.9795 31.3248C84.9981 33.2867 84.6288 35.2328 83.8927 37.0514C83.1566 38.87 82.0683 40.5251 80.6903 41.9216Z" fill="#9F69FF"/>
</svg>
