<svg width="16" height="28" viewBox="0 0 16 28" fill="none" xmlns="http://www.w3.org/2000/svg">
<path d="M8.06522 12.0217C4.61087 11.1239 3.5 10.1957 3.5 8.75C3.5 7.0913 5.03696 5.93478 7.6087 5.93478C9.76957 5.93478 10.85 6.75652 11.2457 8.06522C11.4283 8.67391 11.9304 9.13043 12.5696 9.13043H13.0261C14.0304 9.13043 14.7457 8.1413 14.3957 7.19783C13.7565 5.40217 12.2652 3.91087 9.8913 3.33261V2.28261C9.8913 1.01957 8.87174 0 7.6087 0C6.34565 0 5.32609 1.01957 5.32609 2.28261V3.28696C2.37391 3.92609 0 5.84348 0 8.78044C0 12.2957 2.90652 14.0457 7.15217 15.0652C10.9565 15.9783 11.7174 17.3174 11.7174 18.7326C11.7174 19.7826 10.9717 21.4565 7.6087 21.4565C5.09783 21.4565 3.80435 20.5587 3.30217 19.2804C3.07391 18.687 2.55652 18.2609 1.93261 18.2609H1.50652C0.486956 18.2609 -0.228261 19.2957 0.152174 20.2391C1.01957 22.3543 3.04348 23.6022 5.32609 24.0891V25.1087C5.32609 26.3717 6.34565 27.3913 7.6087 27.3913C8.87174 27.3913 9.8913 26.3717 9.8913 25.1087V24.1196C12.8587 23.5565 15.2174 21.837 15.2174 18.7174C15.2174 14.3957 11.5196 12.9196 8.06522 12.0217Z" fill="#24A342"/>
</svg>
