<svg width="129" height="121" viewBox="0 0 129 121" fill="none" xmlns="http://www.w3.org/2000/svg">
<path d="M52.2222 81.6461L69.5556 87.7661C69.5556 87.7661 112.889 78.5861 118.667 78.5861C124.444 78.5861 124.444 84.7061 118.667 90.8261C112.889 96.9461 92.6667 115.306 75.3333 115.306C58 115.306 46.4444 106.126 34.8889 106.126C23.3333 106.126 6 106.126 6 106.126" stroke="white" stroke-width="10.189" stroke-linecap="round" stroke-linejoin="round"/>
<path d="M6 73.9015C11.7778 67.3534 23.3333 57.5311 34.8889 57.5311C46.4444 57.5311 73.8889 70.6274 78.2222 77.1756C82.5556 83.7237 69.5556 93.5459 69.5556 93.5459" stroke="white" stroke-width="10.189" stroke-linecap="round" stroke-linejoin="round"/>
<path d="M40.667 35.7456V11.2656C40.667 7.88565 43.2537 5.14563 46.4448 5.14563H115.778C118.969 5.14563 121.556 7.88565 121.556 11.2656V60.2256" stroke="white" stroke-width="10.189" stroke-linecap="round" stroke-linejoin="round"/>
<path d="M95.5559 5.14563H66.667V32.6856H95.5559V5.14563Z" fill="#01C938" stroke="white" stroke-width="10.189" stroke-linecap="round" stroke-linejoin="round"/>
</svg>
