<svg width="31" height="31" viewBox="0 0 31 31" fill="none" xmlns="http://www.w3.org/2000/svg">
<path d="M21.8522 18.2609C21.9739 17.2565 22.0652 16.2522 22.0652 15.2174C22.0652 14.1826 21.9739 13.1783 21.8522 12.1739H26.9957C27.2391 13.1478 27.3913 14.1674 27.3913 15.2174C27.3913 16.2674 27.2391 17.287 26.9957 18.2609M19.1587 26.7217C20.0717 25.0326 20.7717 23.2065 21.2587 21.3043H25.7478C24.2735 23.843 21.9345 25.7661 19.1587 26.7217ZM18.7783 18.2609H11.6565C11.5043 17.2565 11.413 16.2522 11.413 15.2174C11.413 14.1826 11.5043 13.163 11.6565 12.1739H18.7783C18.9152 13.163 19.0217 14.1826 19.0217 15.2174C19.0217 16.2522 18.9152 17.2565 18.7783 18.2609ZM15.2174 27.3304C13.9543 25.5043 12.9348 23.4804 12.3109 21.3043H18.1239C17.5 23.4804 16.4804 25.5043 15.2174 27.3304ZM9.13043 9.13043H4.68696C6.14608 6.58489 8.48338 4.65878 11.2609 3.71304C10.3478 5.40217 9.66304 7.22826 9.13043 9.13043ZM4.68696 21.3043H9.13043C9.66304 23.2065 10.3478 25.0326 11.2609 26.7217C8.48921 25.7656 6.1552 23.8422 4.68696 21.3043ZM3.43913 18.2609C3.19565 17.287 3.04348 16.2674 3.04348 15.2174C3.04348 14.1674 3.19565 13.1478 3.43913 12.1739H8.58261C8.46087 13.1783 8.36957 14.1826 8.36957 15.2174C8.36957 16.2522 8.46087 17.2565 8.58261 18.2609M15.2174 3.08913C16.4804 4.91522 17.5 6.95435 18.1239 9.13043H12.3109C12.9348 6.95435 13.9543 4.91522 15.2174 3.08913ZM25.7478 9.13043H21.2587C20.7824 7.2457 20.0772 5.42636 19.1587 3.71304C21.9587 4.67174 24.287 6.60435 25.7478 9.13043ZM15.2174 0C6.80217 0 0 6.84783 0 15.2174C0 19.2533 1.60326 23.1239 4.45707 25.9777C5.87014 27.3908 7.54769 28.5117 9.39395 29.2764C11.2402 30.0412 13.219 30.4348 15.2174 30.4348C19.2533 30.4348 23.1239 28.8315 25.9777 25.9777C28.8315 23.1239 30.4348 19.2533 30.4348 15.2174C30.4348 13.219 30.0412 11.2402 29.2764 9.39395C28.5117 7.54769 27.3908 5.87014 25.9777 4.45707C24.5646 3.04401 22.8871 1.9231 21.0408 1.15835C19.1946 0.39361 17.2158 0 15.2174 0Z" fill="#24A342"/>
</svg>
