<svg width="271" height="232" viewBox="0 0 271 232" fill="none" xmlns="http://www.w3.org/2000/svg">
<path d="M193.57 228.606C193.57 227.337 192.301 226.122 191.086 226.122L177.716 224.854C170.635 223.163 165.192 214.866 164.347 207.732L163.501 203.134H107.644L107.222 207.732C105.953 215.236 100.986 223.163 93.8519 224.854L80.4822 226.122C79.214 226.545 77.9986 227.39 77.9986 228.606C77.5758 230.297 79.2668 231.935 80.905 231.935H191.033C192.354 232.357 193.992 230.666 193.57 228.606ZM267.023 4.17472C264.117 1.26827 260.365 0 256.613 0H14.5851C10.8331 0 7.08117 1.69103 4.17472 4.17472C1.26827 7.08117 0 10.8331 0 14.5851V179.354C0 183.106 1.69103 186.858 4.17472 189.765C7.08117 192.671 10.4104 193.939 14.1623 193.939H256.138C259.889 193.939 263.641 192.248 266.125 189.765C269.032 186.858 270.3 183.106 270.3 179.354V14.1623C271.198 10.4104 269.507 6.65841 267.023 4.17472ZM135.599 178.984C133.115 178.984 130.579 176.924 130.579 173.964C130.579 171.481 132.64 168.944 135.599 168.944C138.558 168.944 140.619 171.005 140.619 173.964C140.619 176.924 138.083 178.984 135.599 178.984ZM259.097 154.782H12.1014C10.8331 154.782 9.61771 153.513 9.61771 152.298V16.646C9.61771 12.4713 12.9469 9.56486 16.6989 9.56486H253.654C257.829 9.56486 260.735 12.8941 260.735 16.646V152.245C261.581 153.513 260.312 154.782 259.097 154.782Z" fill="white"/>
</svg>
