<svg width="94" height="155" viewBox="0 0 94 155" fill="none" xmlns="http://www.w3.org/2000/svg">
<g id="Frame">
<g id="Group">
<g id="Modo de aislamiento">
<g id="Group_2">
<g id="Group_3">
<path id="Vector" d="M2.07642 9.08592C2.07642 6.99076 3.61297 5.20677 5.6894 4.9371C10.3198 4.33552 15.0541 3.79617 19.913 3.38129C44.8716 1.18241 67.837 1.97069 88.2275 4.31477C90.3455 4.5637 91.9028 6.3477 91.9028 8.48434V143.093C91.9028 145.395 90.034 147.283 87.7084 147.283H6.27081C3.96597 147.283 2.07642 145.416 2.07642 143.093V9.08592Z" fill="#EDEDED" stroke="#9D9D9C" stroke-width="2" stroke-miterlimit="10"/>
<path id="Vector_2" d="M2.42946 146.516H16.7776C18.1896 146.516 19.3524 147.657 19.3524 149.088V151.391C19.3524 152.801 18.2103 153.963 16.7776 153.963H4.98347C3.57149 153.963 2.40869 152.822 2.40869 151.391V146.516H2.42946Z" fill="#EDEDED" stroke="#9D9D9C" stroke-miterlimit="10"/>
<path id="Vector_3" d="M89.3488 153.963H77.5755C76.1635 153.963 75.0007 152.822 75.0007 151.39V149.088C75.0007 147.677 76.1427 146.516 77.5755 146.516H91.9236V151.39C91.9236 152.801 90.7815 153.963 89.3488 153.963Z" fill="#EDEDED" stroke="#9D9D9C" stroke-miterlimit="10"/>
</g>
<g id="Group_4">
<path id="Vector_4" d="M57.2886 82.9142C57.2886 83.0386 57.2678 83.1839 57.2471 83.3083C57.2471 83.1839 57.2886 83.0594 57.2886 82.9142Z" fill="url(#paint0_linear_536_3753)"/>
<path id="Vector_5" d="M48.9829 83.2669C48.9829 83.2669 49.0037 83.1839 49.0244 83.1216C49.0244 83.1631 49.0244 83.2046 48.9829 83.2669Z" fill="url(#paint1_linear_536_3753)"/>
<path id="Vector_6" d="M48.9207 83.4536C48.9207 83.4536 48.9622 83.3706 48.9622 83.3083C48.9622 83.3498 48.9414 83.4121 48.9207 83.4536Z" fill="url(#paint2_linear_536_3753)"/>
<path id="Vector_7" d="M48.8376 83.6403C48.8376 83.6403 48.8792 83.5365 48.8999 83.4951C48.8999 83.5365 48.8584 83.5988 48.8376 83.6403Z" fill="url(#paint3_linear_536_3753)"/>
<path id="Vector_8" d="M46.0759 84.5737C46.0759 84.5737 46.159 84.6152 46.2213 84.636C46.1797 84.636 46.1175 84.5945 46.0759 84.5737Z" fill="url(#paint4_linear_536_3753)"/>
<path id="Vector_9" d="M57.3301 82.3956C57.3301 82.52 57.3301 82.6445 57.3093 82.7897C57.3093 82.6652 57.3301 82.5408 57.3301 82.3956Z" fill="url(#paint5_linear_536_3753)"/>
<path id="Vector_10" d="M45.9099 84.4907C45.9099 84.4907 45.9722 84.5322 46.0137 84.553C45.9722 84.553 45.9514 84.5115 45.9099 84.4907Z" fill="url(#paint6_linear_536_3753)"/>
<path id="Vector_11" d="M49.0452 83.0594C49.0452 83.0594 49.0452 82.9557 49.0659 82.9142C49.0659 82.9557 49.0659 83.0179 49.0452 83.0594Z" fill="url(#paint7_linear_536_3753)"/>
<path id="Vector_12" d="M46.2627 84.6567C46.2627 84.6567 46.3873 84.6982 46.4496 84.7189C46.3873 84.7189 46.325 84.6774 46.2627 84.6567Z" fill="url(#paint8_linear_536_3753)"/>
<path id="Vector_13" d="M47.6956 84.6567C47.6956 84.6567 47.7994 84.6152 47.8409 84.5945C47.7994 84.6152 47.7371 84.636 47.6956 84.6567Z" fill="url(#paint9_linear_536_3753)"/>
<path id="Vector_14" d="M47.8823 84.5944C47.8823 84.5944 47.9861 84.5322 48.0277 84.5115C47.9861 84.5322 47.9239 84.5737 47.8823 84.5944Z" fill="url(#paint10_linear_536_3753)"/>
<path id="Vector_15" d="M48.7544 83.8062C48.7544 83.8062 48.8167 83.7025 48.8375 83.661C48.8167 83.7025 48.7752 83.7647 48.7544 83.8062Z" fill="url(#paint11_linear_536_3753)"/>
<path id="Vector_16" d="M47.3218 84.7604C47.3218 84.7604 47.4048 84.7604 47.4464 84.7397C47.4048 84.7397 47.3633 84.7397 47.3218 84.7604Z" fill="url(#paint12_linear_536_3753)"/>
<path id="Vector_17" d="M47.5085 84.7189C47.5085 84.7189 47.5916 84.6982 47.6539 84.6774C47.6124 84.6774 47.5708 84.6982 47.5085 84.7189Z" fill="url(#paint13_linear_536_3753)"/>
<path id="Vector_18" d="M48.0486 84.4907C48.0486 84.4907 48.1524 84.4285 48.1939 84.387C48.1524 84.4285 48.0901 84.4493 48.0486 84.4907Z" fill="url(#paint14_linear_536_3753)"/>
<path id="Vector_19" d="M46.4912 84.7189C46.4912 84.7189 46.5743 84.7397 46.6158 84.7397C46.5743 84.7397 46.5327 84.7397 46.4912 84.7189Z" fill="url(#paint15_linear_536_3753)"/>
<path id="Vector_20" d="M48.6299 83.9721C48.6299 83.9721 48.6922 83.8684 48.7337 83.8269C48.6922 83.8684 48.6714 83.9306 48.6299 83.9721Z" fill="url(#paint16_linear_536_3753)"/>
<path id="Vector_21" d="M48.5054 84.1174C48.5054 84.1174 48.5884 84.0344 48.63 83.9722C48.5884 84.0137 48.5469 84.0759 48.5054 84.1174Z" fill="url(#paint17_linear_536_3753)"/>
<path id="Vector_22" d="M48.2146 84.387C48.2146 84.387 48.3184 84.3041 48.36 84.2626C48.3184 84.3041 48.2561 84.3456 48.2146 84.387Z" fill="url(#paint18_linear_536_3753)"/>
<path id="Vector_23" d="M57.1226 83.8892C57.1019 84.0344 57.0603 84.1796 57.0188 84.3248C57.0603 84.1796 57.0811 84.0344 57.1226 83.8892Z" fill="url(#paint19_linear_536_3753)"/>
<path id="Vector_24" d="M45.2039 83.7647C45.2039 83.7647 45.2454 83.8269 45.2454 83.8477C45.2454 83.8269 45.2039 83.7855 45.2039 83.7647Z" fill="url(#paint20_linear_536_3753)"/>
<path id="Vector_25" d="M48.5054 84.1174C48.5054 84.1174 48.4224 84.2003 48.3809 84.2418C48.4224 84.2003 48.4639 84.1589 48.5054 84.1174Z" fill="url(#paint21_linear_536_3753)"/>
<path id="Vector_26" d="M45.1208 83.5988C45.1208 83.5988 45.1416 83.661 45.1624 83.6817C45.1624 83.661 45.1416 83.6195 45.1208 83.5988Z" fill="url(#paint22_linear_536_3753)"/>
<path id="Vector_27" d="M45.0376 83.412C45.0376 83.412 45.0584 83.4743 45.0791 83.5158C45.0791 83.4743 45.0584 83.4535 45.0376 83.412Z" fill="url(#paint23_linear_536_3753)"/>
<path id="Vector_28" d="M45.5567 84.2003C45.5567 84.2003 45.4737 84.1174 45.4321 84.0759C45.4737 84.1174 45.5152 84.1588 45.5567 84.2003Z" fill="url(#paint24_linear_536_3753)"/>
<path id="Vector_29" d="M45.0169 83.661C45.0169 83.4536 45.0169 83.3498 45.0169 83.3498C45.0169 83.3498 45.0169 83.2876 44.9962 83.2669C44.8093 82.6238 43.3558 78.392 36.6489 77.5V81.7318C36.6489 87.4364 41.2794 92.0831 47.0103 92.0831C51.1839 92.0831 54.7762 89.6146 56.4165 86.0466C53.7795 91.5852 45.2661 89.9257 45.0169 83.661Z" fill="url(#paint25_linear_536_3753)"/>
<path id="Vector_30" d="M45.5984 84.2626C45.5984 84.2626 45.6607 84.3041 45.6814 84.3456C45.6607 84.3248 45.6192 84.3041 45.5984 84.2626Z" fill="url(#paint26_linear_536_3753)"/>
<path id="Vector_31" d="M56.4995 85.8391C56.7072 85.362 56.8733 84.8641 57.0186 84.3455C56.894 84.8434 56.7279 85.3205 56.541 85.7769C56.541 85.7976 56.5203 85.8184 56.4995 85.8598V85.8391Z" fill="url(#paint27_linear_536_3753)"/>
<path id="Vector_32" d="M45.3076 83.9307C45.3076 83.9307 45.3491 83.9929 45.3699 84.0136C45.3491 83.9929 45.3284 83.9514 45.3076 83.9307Z" fill="url(#paint28_linear_536_3753)"/>
<path id="Vector_33" d="M45.7644 84.387C45.7644 84.387 45.8267 84.4285 45.8475 84.4493C45.8267 84.4493 45.7852 84.4078 45.7644 84.387Z" fill="url(#paint29_linear_536_3753)"/>
<path id="Vector_34" d="M57.2056 83.412C57.1848 83.5573 57.1641 83.6817 57.1226 83.8269C57.1433 83.6817 57.1641 83.5573 57.2056 83.412Z" fill="url(#paint30_linear_536_3753)"/>
<path id="Vector_35" style="mix-blend-mode:overlay" opacity="0.77" d="M45.8474 84.4493C45.8474 84.4493 45.8889 84.47 45.9097 84.4908C45.8889 84.4908 45.8682 84.47 45.8474 84.4493Z" fill="url(#paint31_linear_536_3753)"/>
<path id="Vector_36" style="mix-blend-mode:overlay" opacity="0.77" d="M45.0168 83.3291C45.0168 83.3291 45.0168 83.3913 45.0376 83.4121C45.0376 83.3913 45.0168 83.3498 45.0168 83.3291Z" fill="url(#paint32_linear_536_3753)"/>
<path id="Vector_37" style="mix-blend-mode:overlay" opacity="0.77" d="M45.6814 84.3248C45.6814 84.3248 45.7229 84.3662 45.7437 84.3662C45.7229 84.3662 45.7022 84.3248 45.6814 84.3248Z" fill="url(#paint33_linear_536_3753)"/>
<path id="Vector_38" style="mix-blend-mode:overlay" opacity="0.77" d="M45.2661 83.8477C45.2661 83.8477 45.3076 83.8891 45.3076 83.9306C45.3076 83.9099 45.2661 83.8891 45.2661 83.8477Z" fill="url(#paint34_linear_536_3753)"/>
<path id="Vector_39" style="mix-blend-mode:overlay" opacity="0.77" d="M45.1624 83.6817C45.1624 83.6817 45.1831 83.7439 45.2039 83.7647C45.2039 83.7439 45.1624 83.7024 45.1624 83.6817Z" fill="url(#paint35_linear_536_3753)"/>
<path id="Vector_40" style="mix-blend-mode:overlay" opacity="0.77" d="M45.0793 83.5157C45.0793 83.5157 45.1001 83.578 45.1209 83.5987C45.1209 83.578 45.1001 83.5365 45.0793 83.5157Z" fill="url(#paint36_linear_536_3753)"/>
<path id="Vector_41" style="mix-blend-mode:overlay" opacity="0.77" d="M45.3699 84.0136C45.3699 84.0136 45.4114 84.0551 45.4114 84.0758C45.4114 84.0758 45.3699 84.0344 45.3699 84.0136Z" fill="url(#paint37_linear_536_3753)"/>
<path id="Vector_42" style="mix-blend-mode:overlay" opacity="0.77" d="M46.0137 84.553C46.0137 84.553 46.0552 84.5737 46.076 84.5945C46.0552 84.5945 46.0344 84.5737 46.0137 84.553Z" fill="url(#paint38_linear_536_3753)"/>
<path id="Vector_43" style="mix-blend-mode:overlay" opacity="0.77" d="M45.5984 84.2626C45.5984 84.2626 45.5569 84.2211 45.5361 84.2211C45.5361 84.2211 45.5777 84.2626 45.5984 84.2626Z" fill="url(#paint39_linear_536_3753)"/>
<path id="Vector_44" style="mix-blend-mode:overlay" opacity="0.77" d="M56.4165 86.0465C56.4165 86.0465 56.4788 85.9013 56.4996 85.8391C56.4788 85.9013 56.4373 85.9843 56.4165 86.0465Z" fill="url(#paint40_linear_536_3753)"/>
<path id="Vector_45" d="M56.5412 85.7562C56.7281 85.2998 56.8942 84.8227 57.0188 84.3248C57.0188 84.3248 57.0188 84.3248 57.0188 84.3041C57.0603 84.1589 57.0811 84.0137 57.1226 83.8685C57.1226 83.8477 57.1226 83.827 57.1226 83.8062C57.1434 83.661 57.1641 83.5365 57.2057 83.3913C57.2057 83.3498 57.2057 83.3291 57.2057 83.2876C57.2057 83.1632 57.2472 83.0387 57.2472 82.8935C57.2472 82.852 57.2472 82.8105 57.2472 82.769C57.2472 82.6446 57.268 82.5201 57.268 82.3749C57.268 82.3334 57.268 82.2919 57.268 82.2297C57.268 82.043 57.268 81.877 57.268 81.6903V74.4506C57.268 76.8777 55.6068 79.0143 53.2397 79.5537C51.3294 79.9893 49.6475 79.9271 49.0038 79.8648V82.6238C49.0038 82.6238 49.0038 82.769 49.0038 82.8312C49.0038 82.8312 49.0038 82.8727 49.0038 82.8935C49.0038 82.935 49.0038 82.9972 48.983 83.0387C48.983 83.0387 48.983 83.0802 48.983 83.1009C48.983 83.1424 48.983 83.1839 48.9415 83.2461V83.2876C48.9415 83.3291 48.9207 83.3913 48.8999 83.4328C48.8999 83.4328 48.8999 83.4536 48.8999 83.4743C48.8999 83.5158 48.8584 83.578 48.8376 83.6195C48.8376 83.6195 48.8376 83.6195 48.8376 83.6403C48.8169 83.6818 48.7754 83.744 48.7546 83.7855C48.7131 83.827 48.6923 83.8892 48.6508 83.9307C48.6092 83.9722 48.5677 84.0344 48.5262 84.0759C48.4847 84.1174 48.4431 84.1589 48.4016 84.2004C48.3601 84.2418 48.2978 84.2833 48.2562 84.3248C48.2147 84.3663 48.1524 84.3871 48.1109 84.4285C48.1109 84.4285 48.1109 84.4285 48.0901 84.4285C48.0486 84.4493 47.9863 84.4908 47.9448 84.5115C47.9448 84.5115 47.924 84.5115 47.9033 84.5115C47.8617 84.5323 47.7994 84.553 47.7579 84.5738H47.7164C47.6748 84.5738 47.6333 84.5945 47.571 84.6152C47.5503 84.6152 47.5295 84.6152 47.5087 84.6152C47.4672 84.6152 47.4257 84.6152 47.3841 84.636C47.3634 84.636 47.3219 84.636 47.3011 84.636C47.2596 84.636 47.2388 84.636 47.1973 84.636C47.1973 84.636 47.1973 84.636 47.1765 84.636H47.135C47.0934 84.636 47.0312 84.636 46.9896 84.636C46.9689 84.636 46.9481 84.636 46.9066 84.636C46.865 84.636 46.8235 84.636 46.782 84.636C46.7612 84.636 46.7405 84.636 46.7197 84.636C46.6782 84.636 46.6366 84.636 46.5951 84.6152C46.5951 84.6152 46.5536 84.6152 46.5328 84.6152C46.4705 84.6152 46.4082 84.5737 46.3459 84.553C46.3459 84.553 46.3252 84.553 46.3044 84.553C46.2629 84.553 46.2006 84.5115 46.1591 84.4908C46.1383 84.4908 46.1175 84.47 46.0968 84.4493C46.0552 84.4493 46.0345 84.4078 45.9929 84.3871C45.9722 84.3871 45.9514 84.3663 45.9306 84.3456C45.9099 84.3456 45.8684 84.3041 45.8476 84.2833C45.8268 84.2833 45.8061 84.2418 45.7853 84.2418C45.7645 84.2211 45.723 84.2004 45.7022 84.1589C45.7022 84.1589 45.6607 84.1174 45.6399 84.1174C45.5984 84.0759 45.5569 84.0344 45.5154 83.9929C45.5154 83.9929 45.4738 83.9514 45.4738 83.9307C45.4531 83.9099 45.4323 83.8684 45.4115 83.8477C45.4115 83.827 45.37 83.8062 45.37 83.7647C45.37 83.744 45.3285 83.7025 45.3285 83.6818C45.3285 83.661 45.287 83.6195 45.287 83.5988C45.287 83.578 45.2662 83.5365 45.2454 83.5158C45.2454 83.4951 45.2247 83.4536 45.2039 83.4328C45.2039 83.3913 45.1831 83.3706 45.1624 83.3291C45.1624 83.3084 45.1416 83.2669 45.1416 83.2461C45.1416 83.2461 45.1416 83.3706 45.1416 83.5573C45.3908 89.822 53.8834 91.4815 56.5412 85.9429C56.562 85.8806 56.6035 85.7977 56.6243 85.7354C56.6243 85.7147 56.645 85.6939 56.6658 85.6524L56.5412 85.7562Z" fill="url(#paint41_linear_536_3753)"/>
<path id="Vector_46" style="mix-blend-mode:overlay" opacity="0.77" d="M56.5412 85.7562C56.7281 85.2998 56.8942 84.8227 57.0188 84.3248C57.0188 84.3248 57.0188 84.3248 57.0188 84.3041C57.0603 84.1589 57.0811 84.0137 57.1226 83.8685C57.1226 83.8477 57.1226 83.827 57.1226 83.8062C57.1434 83.661 57.1641 83.5365 57.2057 83.3913C57.2057 83.3498 57.2057 83.3291 57.2057 83.2876C57.2057 83.1632 57.2472 83.0387 57.2472 82.8935C57.2472 82.852 57.2472 82.8105 57.2472 82.769C57.2472 82.6446 57.268 82.5201 57.268 82.3749C57.268 82.3334 57.268 82.2919 57.268 82.2297C57.268 82.043 57.268 81.877 57.268 81.6903V74.4506C57.268 76.8777 55.6068 79.0143 53.2397 79.5537C51.3294 79.9893 49.6475 79.9271 49.0038 79.8648V82.6238C49.0038 82.6238 49.0038 82.769 49.0038 82.8312C49.0038 82.8312 49.0038 82.8727 49.0038 82.8935C49.0038 82.935 49.0038 82.9972 48.983 83.0387C48.983 83.0387 48.983 83.0802 48.983 83.1009C48.983 83.1424 48.983 83.1839 48.9415 83.2461V83.2876C48.9415 83.3291 48.9207 83.3913 48.8999 83.4328C48.8999 83.4328 48.8999 83.4536 48.8999 83.4743C48.8999 83.5158 48.8584 83.578 48.8376 83.6195C48.8376 83.6195 48.8376 83.6195 48.8376 83.6403C48.8169 83.6818 48.7754 83.744 48.7546 83.7855C48.7131 83.827 48.6923 83.8892 48.6508 83.9307C48.6092 83.9722 48.5677 84.0344 48.5262 84.0759C48.4847 84.1174 48.4431 84.1589 48.4016 84.2004C48.3601 84.2418 48.2978 84.2833 48.2562 84.3248C48.2147 84.3663 48.1524 84.3871 48.1109 84.4285C48.1109 84.4285 48.1109 84.4285 48.0901 84.4285C48.0486 84.4493 47.9863 84.4908 47.9448 84.5115C47.9448 84.5115 47.924 84.5115 47.9033 84.5115C47.8617 84.5323 47.7994 84.553 47.7579 84.5738H47.7164C47.6748 84.5738 47.6333 84.5945 47.571 84.6152C47.5503 84.6152 47.5295 84.6152 47.5087 84.6152C47.4672 84.6152 47.4257 84.6152 47.3841 84.636C47.3634 84.636 47.3219 84.636 47.3011 84.636C47.2596 84.636 47.2388 84.636 47.1973 84.636C47.1973 84.636 47.1973 84.636 47.1765 84.636H47.135C47.0934 84.636 47.0312 84.636 46.9896 84.636C46.9689 84.636 46.9481 84.636 46.9066 84.636C46.865 84.636 46.8235 84.636 46.782 84.636C46.7612 84.636 46.7405 84.636 46.7197 84.636C46.6782 84.636 46.6366 84.636 46.5951 84.6152C46.5951 84.6152 46.5536 84.6152 46.5328 84.6152C46.4705 84.6152 46.4082 84.5737 46.3459 84.553C46.3459 84.553 46.3252 84.553 46.3044 84.553C46.2629 84.553 46.2006 84.5115 46.1591 84.4908C46.1383 84.4908 46.1175 84.47 46.0968 84.4493C46.0552 84.4493 46.0345 84.4078 45.9929 84.3871C45.9722 84.3871 45.9514 84.3663 45.9306 84.3456C45.9099 84.3456 45.8684 84.3041 45.8476 84.2833C45.8268 84.2833 45.8061 84.2418 45.7853 84.2418C45.7645 84.2211 45.723 84.2004 45.7022 84.1589C45.7022 84.1589 45.6607 84.1174 45.6399 84.1174C45.5984 84.0759 45.5569 84.0344 45.5154 83.9929C45.5154 83.9929 45.4738 83.9514 45.4738 83.9307C45.4531 83.9099 45.4323 83.8684 45.4115 83.8477C45.4115 83.827 45.37 83.8062 45.37 83.7647C45.37 83.744 45.3285 83.7025 45.3285 83.6818C45.3285 83.661 45.287 83.6195 45.287 83.5988C45.287 83.578 45.2662 83.5365 45.2454 83.5158C45.2454 83.4951 45.2247 83.4536 45.2039 83.4328C45.2039 83.3913 45.1831 83.3706 45.1624 83.3291C45.1624 83.3084 45.1416 83.2669 45.1416 83.2461C45.1416 83.2461 45.1416 83.3706 45.1416 83.5573C45.3908 89.822 53.8834 91.4815 56.5412 85.9429C56.562 85.8806 56.6035 85.7977 56.6243 85.7354C56.6243 85.7147 56.645 85.6939 56.6658 85.6524L56.5412 85.7562Z" fill="url(#paint42_linear_536_3753)"/>
<path id="Vector_47" d="M53.3226 79.5744C55.6897 79.035 57.3509 76.8984 57.3509 74.4713C57.3509 72.1895 55.5028 70.3433 53.2188 70.3433C50.9347 70.3433 49.0867 72.1895 49.0867 74.4713V79.8855C49.7304 79.9478 51.4123 80.01 53.3226 79.5744ZM53.6963 77.5207C53.5925 77.6867 53.4056 77.7904 53.198 77.7904C52.8658 77.7904 52.5958 77.5207 52.5958 77.1888C52.5958 77.1058 52.5958 77.0229 52.6374 76.9606C52.7204 76.7324 52.9488 76.5872 53.198 76.5872C53.5302 76.5872 53.8002 76.8569 53.8002 77.1888C53.8002 77.3133 53.7586 77.417 53.6963 77.5207ZM54.4231 76.3591C54.4231 76.3591 54.2985 76.442 54.2362 76.442C54.1532 76.442 54.0701 76.4005 54.0078 76.3176C53.8209 76.0272 53.5302 75.8612 53.2188 75.8612C52.9073 75.8612 52.6166 76.0272 52.4297 76.3176C52.3259 76.4628 52.139 76.4835 52.0144 76.3798C51.8899 76.2553 51.8691 76.0272 51.9729 75.8819C51.9729 75.8612 52.0144 75.8197 52.0352 75.799C52.3467 75.3841 52.762 75.1559 53.2188 75.1559C53.6963 75.1559 54.1532 75.4256 54.4646 75.8819C54.5684 76.0272 54.5477 76.2553 54.4231 76.3798V76.3591ZM55.4613 75.3426C55.4613 75.3426 55.3367 75.4256 55.2744 75.4256C55.1914 75.4256 55.1083 75.3841 55.046 75.3011C55.0253 75.2596 54.9837 75.2181 54.9422 75.1559C54.4854 74.5543 53.8625 74.2224 53.198 74.2224C52.492 74.2224 51.8068 74.6165 51.3707 75.3011C51.2669 75.4463 51.08 75.4671 50.9555 75.3633C50.8309 75.2389 50.8101 75.0107 50.9139 74.8655C50.997 74.7203 51.1008 74.5958 51.2046 74.4713C51.2462 74.4299 51.2669 74.3884 51.3084 74.3676C51.8276 73.8283 52.492 73.5379 53.198 73.5379C54.0909 73.5379 54.9214 74.015 55.4821 74.8655C55.5859 75.0107 55.5651 75.2389 55.4405 75.3633L55.4613 75.3426ZM49.938 74.3261C49.8134 74.2017 49.7927 73.9735 49.8965 73.8283C50.2495 73.2889 50.6855 72.8533 51.1839 72.5214C51.8068 72.1065 52.492 71.8991 53.2188 71.8991C54.5062 71.8991 55.7312 72.6044 56.5411 73.8283C56.6449 73.9735 56.6241 74.2017 56.4995 74.3261C56.4372 74.3884 56.3749 74.4091 56.3127 74.4091C56.2296 74.4091 56.1465 74.3676 56.0842 74.2846C55.9181 74.015 55.7105 73.7868 55.5028 73.5793C55.4613 73.5379 55.4198 73.4964 55.3783 73.4549C55.3783 73.4549 55.3575 73.4341 55.3367 73.4134C54.7346 72.8948 53.987 72.6044 53.2395 72.6044C52.1183 72.6044 51.08 73.206 50.3741 74.2846C50.2702 74.4299 50.0834 74.4506 49.9588 74.3469L49.938 74.3261Z" fill="url(#paint43_linear_536_3753)"/>
<path id="Vector_48" style="mix-blend-mode:overlay" opacity="0.77" d="M53.3226 79.5744C55.6897 79.035 57.3509 76.8984 57.3509 74.4713C57.3509 72.1895 55.5028 70.3433 53.2188 70.3433C50.9347 70.3433 49.0867 72.1895 49.0867 74.4713V79.8855C49.7304 79.9478 51.4123 80.01 53.3226 79.5744ZM53.6963 77.5207C53.5925 77.6867 53.4056 77.7904 53.198 77.7904C52.8658 77.7904 52.5958 77.5207 52.5958 77.1888C52.5958 77.1058 52.5958 77.0229 52.6374 76.9606C52.7204 76.7324 52.9488 76.5872 53.198 76.5872C53.5302 76.5872 53.8002 76.8569 53.8002 77.1888C53.8002 77.3133 53.7586 77.417 53.6963 77.5207ZM54.4231 76.3591C54.4231 76.3591 54.2985 76.442 54.2362 76.442C54.1532 76.442 54.0701 76.4005 54.0078 76.3176C53.8209 76.0272 53.5302 75.8612 53.2188 75.8612C52.9073 75.8612 52.6166 76.0272 52.4297 76.3176C52.3259 76.4628 52.139 76.4835 52.0144 76.3798C51.8899 76.2553 51.8691 76.0272 51.9729 75.8819C51.9729 75.8612 52.0144 75.8197 52.0352 75.799C52.3467 75.3841 52.762 75.1559 53.2188 75.1559C53.6963 75.1559 54.1532 75.4256 54.4646 75.8819C54.5684 76.0272 54.5477 76.2553 54.4231 76.3798V76.3591ZM55.4613 75.3426C55.4613 75.3426 55.3367 75.4256 55.2744 75.4256C55.1914 75.4256 55.1083 75.3841 55.046 75.3011C55.0253 75.2596 54.9837 75.2181 54.9422 75.1559C54.4854 74.5543 53.8625 74.2224 53.198 74.2224C52.492 74.2224 51.8068 74.6165 51.3707 75.3011C51.2669 75.4463 51.08 75.4671 50.9555 75.3633C50.8309 75.2389 50.8101 75.0107 50.9139 74.8655C50.997 74.7203 51.1008 74.5958 51.2046 74.4713C51.2462 74.4299 51.2669 74.3884 51.3084 74.3676C51.8276 73.8283 52.492 73.5379 53.198 73.5379C54.0909 73.5379 54.9214 74.015 55.4821 74.8655C55.5859 75.0107 55.5651 75.2389 55.4405 75.3633L55.4613 75.3426ZM49.938 74.3261C49.8134 74.2017 49.7927 73.9735 49.8965 73.8283C50.2495 73.2889 50.6855 72.8533 51.1839 72.5214C51.8068 72.1065 52.492 71.8991 53.2188 71.8991C54.5062 71.8991 55.7312 72.6044 56.5411 73.8283C56.6449 73.9735 56.6241 74.2017 56.4995 74.3261C56.4372 74.3884 56.3749 74.4091 56.3127 74.4091C56.2296 74.4091 56.1465 74.3676 56.0842 74.2846C55.9181 74.015 55.7105 73.7868 55.5028 73.5793C55.4613 73.5379 55.4198 73.4964 55.3783 73.4549C55.3783 73.4549 55.3575 73.4341 55.3367 73.4134C54.7346 72.8948 53.987 72.6044 53.2395 72.6044C52.1183 72.6044 51.08 73.206 50.3741 74.2846C50.2702 74.4299 50.0834 74.4506 49.9588 74.3469L49.938 74.3261Z" fill="url(#paint44_linear_536_3753)"/>
<path id="Vector_49" style="mix-blend-mode:overlay" opacity="0.77" d="M53.3226 79.5744C55.6897 79.035 57.3509 76.8984 57.3509 74.4713C57.3509 72.1895 55.5028 70.3433 53.2188 70.3433C50.9347 70.3433 49.0867 72.1895 49.0867 74.4713V79.8855C49.7304 79.9478 51.4123 80.01 53.3226 79.5744ZM53.6963 77.5207C53.5925 77.6867 53.4056 77.7904 53.198 77.7904C52.8658 77.7904 52.5958 77.5207 52.5958 77.1888C52.5958 77.1058 52.5958 77.0229 52.6374 76.9606C52.7204 76.7324 52.9488 76.5872 53.198 76.5872C53.5302 76.5872 53.8002 76.8569 53.8002 77.1888C53.8002 77.3133 53.7586 77.417 53.6963 77.5207ZM54.4231 76.3591C54.4231 76.3591 54.2985 76.442 54.2362 76.442C54.1532 76.442 54.0701 76.4005 54.0078 76.3176C53.8209 76.0272 53.5302 75.8612 53.2188 75.8612C52.9073 75.8612 52.6166 76.0272 52.4297 76.3176C52.3259 76.4628 52.139 76.4835 52.0144 76.3798C51.8899 76.2553 51.8691 76.0272 51.9729 75.8819C51.9729 75.8612 52.0144 75.8197 52.0352 75.799C52.3467 75.3841 52.762 75.1559 53.2188 75.1559C53.6963 75.1559 54.1532 75.4256 54.4646 75.8819C54.5684 76.0272 54.5477 76.2553 54.4231 76.3798V76.3591ZM55.4613 75.3426C55.4613 75.3426 55.3367 75.4256 55.2744 75.4256C55.1914 75.4256 55.1083 75.3841 55.046 75.3011C55.0253 75.2596 54.9837 75.2181 54.9422 75.1559C54.4854 74.5543 53.8625 74.2224 53.198 74.2224C52.492 74.2224 51.8068 74.6165 51.3707 75.3011C51.2669 75.4463 51.08 75.4671 50.9555 75.3633C50.8309 75.2389 50.8101 75.0107 50.9139 74.8655C50.997 74.7203 51.1008 74.5958 51.2046 74.4713C51.2462 74.4299 51.2669 74.3884 51.3084 74.3676C51.8276 73.8283 52.492 73.5379 53.198 73.5379C54.0909 73.5379 54.9214 74.015 55.4821 74.8655C55.5859 75.0107 55.5651 75.2389 55.4405 75.3633L55.4613 75.3426ZM49.938 74.3261C49.8134 74.2017 49.7927 73.9735 49.8965 73.8283C50.2495 73.2889 50.6855 72.8533 51.1839 72.5214C51.8068 72.1065 52.492 71.8991 53.2188 71.8991C54.5062 71.8991 55.7312 72.6044 56.5411 73.8283C56.6449 73.9735 56.6241 74.2017 56.4995 74.3261C56.4372 74.3884 56.3749 74.4091 56.3127 74.4091C56.2296 74.4091 56.1465 74.3676 56.0842 74.2846C55.9181 74.015 55.7105 73.7868 55.5028 73.5793C55.4613 73.5379 55.4198 73.4964 55.3783 73.4549C55.3783 73.4549 55.3575 73.4341 55.3367 73.4134C54.7346 72.8948 53.987 72.6044 53.2395 72.6044C52.1183 72.6044 51.08 73.206 50.3741 74.2846C50.2702 74.4299 50.0834 74.4506 49.9588 74.3469L49.938 74.3261Z" fill="url(#paint45_linear_536_3753)"/>
<path id="Vector_50" d="M44.9961 83.2461C44.9961 83.2461 44.9546 83.1009 44.9546 83.0386C44.9546 83.1009 44.9754 83.1838 44.9961 83.2461Z" fill="url(#paint46_linear_536_3753)"/>
<path id="Vector_51" d="M44.9962 83.2461C44.9962 83.2461 44.9546 83.1009 44.9546 83.0387C44.9546 83.0179 44.9546 82.9972 44.9546 82.9764C44.9546 82.9557 44.9546 82.9142 44.9546 82.8934C44.9546 82.8312 44.9546 82.769 44.9546 82.7067V74.4713C44.9546 72.1895 43.1066 70.3433 40.8225 70.3433C38.5385 70.3433 36.6904 72.1895 36.6904 74.4713V77.4792C43.3973 78.3505 44.8508 82.603 45.0377 83.2461H44.9962Z" fill="url(#paint47_linear_536_3753)"/>
<path id="Vector_52" d="M44.9962 83.2461C44.9962 83.2461 44.9546 83.1009 44.9546 83.0387C44.9546 83.0179 44.9546 82.9972 44.9546 82.9764C44.9546 82.9557 44.9546 82.9142 44.9546 82.8934C44.9546 82.8312 44.9546 82.769 44.9546 82.7067V74.4713C44.9546 72.1895 43.1066 70.3433 40.8225 70.3433C38.5385 70.3433 36.6904 72.1895 36.6904 74.4713V77.4792C43.3973 78.3505 44.8508 82.603 45.0377 83.2461H44.9962Z" fill="url(#paint48_linear_536_3753)"/>
</g>
</g>
</g>
</g>
</g>
<defs>
<linearGradient id="paint0_linear_536_3753" x1="45.4942" y1="94.8627" x2="62.4628" y2="77.8771" gradientUnits="userSpaceOnUse">
<stop stop-color="#7F44E5"/>
<stop offset="0.33" stop-color="#4F768F"/>
<stop offset="0.66" stop-color="#24A342"/>
<stop offset="0.89" stop-color="#0AC012"/>
<stop offset="1" stop-color="#00CB00"/>
</linearGradient>
<linearGradient id="paint1_linear_536_3753" x1="41.4038" y1="90.7762" x2="58.3724" y2="73.7906" gradientUnits="userSpaceOnUse">
<stop stop-color="#7F44E5"/>
<stop offset="0.33" stop-color="#4F768F"/>
<stop offset="0.66" stop-color="#24A342"/>
<stop offset="0.89" stop-color="#0AC012"/>
<stop offset="1" stop-color="#00CB00"/>
</linearGradient>
<linearGradient id="paint2_linear_536_3753" x1="41.4661" y1="90.8384" x2="58.4347" y2="73.8529" gradientUnits="userSpaceOnUse">
<stop stop-color="#7F44E5"/>
<stop offset="0.33" stop-color="#4F768F"/>
<stop offset="0.66" stop-color="#24A342"/>
<stop offset="0.89" stop-color="#0AC012"/>
<stop offset="1" stop-color="#00CB00"/>
</linearGradient>
<linearGradient id="paint3_linear_536_3753" x1="41.5289" y1="90.9007" x2="58.4975" y2="73.9162" gradientUnits="userSpaceOnUse">
<stop stop-color="#7F44E5"/>
<stop offset="0.33" stop-color="#4F768F"/>
<stop offset="0.66" stop-color="#24A342"/>
<stop offset="0.89" stop-color="#0AC012"/>
<stop offset="1" stop-color="#00CB00"/>
</linearGradient>
<linearGradient id="paint4_linear_536_3753" x1="40.698" y1="90.0707" x2="57.666" y2="73.0856" gradientUnits="userSpaceOnUse">
<stop stop-color="#7F44E5"/>
<stop offset="0.33" stop-color="#4F768F"/>
<stop offset="0.66" stop-color="#24A342"/>
<stop offset="0.89" stop-color="#0AC012"/>
<stop offset="1" stop-color="#00CB00"/>
</linearGradient>
<linearGradient id="paint5_linear_536_3753" x1="45.2658" y1="94.6345" x2="62.2343" y2="77.6489" gradientUnits="userSpaceOnUse">
<stop stop-color="#7F44E5"/>
<stop offset="0.33" stop-color="#4F768F"/>
<stop offset="0.66" stop-color="#24A342"/>
<stop offset="0.89" stop-color="#0AC012"/>
<stop offset="1" stop-color="#00CB00"/>
</linearGradient>
<linearGradient id="paint6_linear_536_3753" x1="40.5528" y1="89.9255" x2="57.5208" y2="72.9405" gradientUnits="userSpaceOnUse">
<stop stop-color="#7F44E5"/>
<stop offset="0.33" stop-color="#4F768F"/>
<stop offset="0.66" stop-color="#24A342"/>
<stop offset="0.89" stop-color="#0AC012"/>
<stop offset="1" stop-color="#00CB00"/>
</linearGradient>
<linearGradient id="paint7_linear_536_3753" x1="41.3221" y1="90.6932" x2="58.2907" y2="73.7109" gradientUnits="userSpaceOnUse">
<stop stop-color="#7F44E5"/>
<stop offset="0.33" stop-color="#4F768F"/>
<stop offset="0.66" stop-color="#24A342"/>
<stop offset="0.89" stop-color="#0AC012"/>
<stop offset="1" stop-color="#00CB00"/>
</linearGradient>
<linearGradient id="paint8_linear_536_3753" x1="40.8224" y1="90.1951" x2="57.7904" y2="73.2099" gradientUnits="userSpaceOnUse">
<stop stop-color="#7F44E5"/>
<stop offset="0.33" stop-color="#4F768F"/>
<stop offset="0.66" stop-color="#24A342"/>
<stop offset="0.89" stop-color="#0AC012"/>
<stop offset="1" stop-color="#00CB00"/>
</linearGradient>
<linearGradient id="paint9_linear_536_3753" x1="41.5077" y1="90.8805" x2="58.4778" y2="73.8949" gradientUnits="userSpaceOnUse">
<stop stop-color="#7F44E5"/>
<stop offset="0.33" stop-color="#4F768F"/>
<stop offset="0.66" stop-color="#24A342"/>
<stop offset="0.89" stop-color="#0AC012"/>
<stop offset="1" stop-color="#00CB00"/>
</linearGradient>
<linearGradient id="paint10_linear_536_3753" x1="41.57" y1="90.9417" x2="58.5374" y2="73.9566" gradientUnits="userSpaceOnUse">
<stop stop-color="#7F44E5"/>
<stop offset="0.33" stop-color="#4F768F"/>
<stop offset="0.66" stop-color="#24A342"/>
<stop offset="0.89" stop-color="#0AC012"/>
<stop offset="1" stop-color="#00CB00"/>
</linearGradient>
<linearGradient id="paint11_linear_536_3753" x1="41.5698" y1="90.9422" x2="58.5384" y2="73.9566" gradientUnits="userSpaceOnUse">
<stop stop-color="#7F44E5"/>
<stop offset="0.33" stop-color="#4F768F"/>
<stop offset="0.66" stop-color="#24A342"/>
<stop offset="0.89" stop-color="#0AC012"/>
<stop offset="1" stop-color="#00CB00"/>
</linearGradient>
<linearGradient id="paint12_linear_536_3753" x1="41.3832" y1="90.7568" x2="58.3555" y2="73.7717" gradientUnits="userSpaceOnUse">
<stop stop-color="#7F44E5"/>
<stop offset="0.33" stop-color="#4F768F"/>
<stop offset="0.66" stop-color="#24A342"/>
<stop offset="0.89" stop-color="#0AC012"/>
<stop offset="1" stop-color="#00CB00"/>
</linearGradient>
<linearGradient id="paint13_linear_536_3753" x1="41.4452" y1="90.8178" x2="58.4143" y2="73.8322" gradientUnits="userSpaceOnUse">
<stop stop-color="#7F44E5"/>
<stop offset="0.33" stop-color="#4F768F"/>
<stop offset="0.66" stop-color="#24A342"/>
<stop offset="0.89" stop-color="#0AC012"/>
<stop offset="1" stop-color="#00CB00"/>
</linearGradient>
<linearGradient id="paint14_linear_536_3753" x1="41.5909" y1="90.9628" x2="58.5593" y2="73.9777" gradientUnits="userSpaceOnUse">
<stop stop-color="#7F44E5"/>
<stop offset="0.33" stop-color="#4F768F"/>
<stop offset="0.66" stop-color="#24A342"/>
<stop offset="0.89" stop-color="#0AC012"/>
<stop offset="1" stop-color="#00CB00"/>
</linearGradient>
<linearGradient id="paint15_linear_536_3753" x1="40.9678" y1="90.3396" x2="57.9336" y2="73.3541" gradientUnits="userSpaceOnUse">
<stop stop-color="#7F44E5"/>
<stop offset="0.33" stop-color="#4F768F"/>
<stop offset="0.66" stop-color="#24A342"/>
<stop offset="0.89" stop-color="#0AC012"/>
<stop offset="1" stop-color="#00CB00"/>
</linearGradient>
<linearGradient id="paint16_linear_536_3753" x1="41.5909" y1="90.9628" x2="58.5595" y2="73.9779" gradientUnits="userSpaceOnUse">
<stop stop-color="#7F44E5"/>
<stop offset="0.33" stop-color="#4F768F"/>
<stop offset="0.66" stop-color="#24A342"/>
<stop offset="0.89" stop-color="#0AC012"/>
<stop offset="1" stop-color="#00CB00"/>
</linearGradient>
<linearGradient id="paint17_linear_536_3753" x1="41.6117" y1="90.9836" x2="58.5803" y2="73.9986" gradientUnits="userSpaceOnUse">
<stop stop-color="#7F44E5"/>
<stop offset="0.33" stop-color="#4F768F"/>
<stop offset="0.66" stop-color="#24A342"/>
<stop offset="0.89" stop-color="#0AC012"/>
<stop offset="1" stop-color="#00CB00"/>
</linearGradient>
<linearGradient id="paint18_linear_536_3753" x1="41.6114" y1="90.9838" x2="58.5805" y2="73.9982" gradientUnits="userSpaceOnUse">
<stop stop-color="#7F44E5"/>
<stop offset="0.33" stop-color="#4F768F"/>
<stop offset="0.66" stop-color="#24A342"/>
<stop offset="0.89" stop-color="#0AC012"/>
<stop offset="1" stop-color="#00CB00"/>
</linearGradient>
<linearGradient id="paint19_linear_536_3753" x1="45.9096" y1="95.2571" x2="62.8786" y2="78.2715" gradientUnits="userSpaceOnUse">
<stop stop-color="#7F44E5"/>
<stop offset="0.33" stop-color="#4F768F"/>
<stop offset="0.66" stop-color="#24A342"/>
<stop offset="0.89" stop-color="#0AC012"/>
<stop offset="1" stop-color="#00CB00"/>
</linearGradient>
<linearGradient id="paint20_linear_536_3753" x1="39.8258" y1="89.1993" x2="56.7932" y2="72.2137" gradientUnits="userSpaceOnUse">
<stop stop-color="#7F44E5"/>
<stop offset="0.33" stop-color="#4F768F"/>
<stop offset="0.66" stop-color="#24A342"/>
<stop offset="0.89" stop-color="#0AC012"/>
<stop offset="1" stop-color="#00CB00"/>
</linearGradient>
<linearGradient id="paint21_linear_536_3753" x1="41.6323" y1="91.0046" x2="58.6014" y2="74.019" gradientUnits="userSpaceOnUse">
<stop stop-color="#7F44E5"/>
<stop offset="0.33" stop-color="#4F768F"/>
<stop offset="0.66" stop-color="#24A342"/>
<stop offset="0.89" stop-color="#0AC012"/>
<stop offset="1" stop-color="#00CB00"/>
</linearGradient>
<linearGradient id="paint22_linear_536_3753" x1="39.7012" y1="89.0753" x2="56.6703" y2="72.0897" gradientUnits="userSpaceOnUse">
<stop stop-color="#7F44E5"/>
<stop offset="0.33" stop-color="#4F768F"/>
<stop offset="0.66" stop-color="#24A342"/>
<stop offset="0.89" stop-color="#0AC012"/>
<stop offset="1" stop-color="#00CB00"/>
</linearGradient>
<linearGradient id="paint23_linear_536_3753" x1="39.577" y1="88.9506" x2="56.5454" y2="71.9667" gradientUnits="userSpaceOnUse">
<stop stop-color="#7F44E5"/>
<stop offset="0.33" stop-color="#4F768F"/>
<stop offset="0.66" stop-color="#24A342"/>
<stop offset="0.89" stop-color="#0AC012"/>
<stop offset="1" stop-color="#00CB00"/>
</linearGradient>
<linearGradient id="paint24_linear_536_3753" x1="40.1163" y1="89.4902" x2="57.0854" y2="72.5046" gradientUnits="userSpaceOnUse">
<stop stop-color="#7F44E5"/>
<stop offset="0.33" stop-color="#4F768F"/>
<stop offset="0.66" stop-color="#24A342"/>
<stop offset="0.89" stop-color="#0AC012"/>
<stop offset="1" stop-color="#00CB00"/>
</linearGradient>
<linearGradient id="paint25_linear_536_3753" x1="39.6805" y1="89.0545" x2="56.6492" y2="72.0693" gradientUnits="userSpaceOnUse">
<stop stop-color="#7F44E5"/>
<stop offset="0.33" stop-color="#4F768F"/>
<stop offset="0.66" stop-color="#24A342"/>
<stop offset="0.89" stop-color="#0AC012"/>
<stop offset="1" stop-color="#00CB00"/>
</linearGradient>
<linearGradient id="paint26_linear_536_3753" x1="40.2826" y1="89.6562" x2="57.2517" y2="72.6706" gradientUnits="userSpaceOnUse">
<stop stop-color="#7F44E5"/>
<stop offset="0.33" stop-color="#4F768F"/>
<stop offset="0.66" stop-color="#24A342"/>
<stop offset="0.89" stop-color="#0AC012"/>
<stop offset="1" stop-color="#00CB00"/>
</linearGradient>
<linearGradient id="paint27_linear_536_3753" x1="46.2419" y1="95.6096" x2="63.2106" y2="78.6244" gradientUnits="userSpaceOnUse">
<stop stop-color="#7F44E5"/>
<stop offset="0.33" stop-color="#4F768F"/>
<stop offset="0.66" stop-color="#24A342"/>
<stop offset="0.89" stop-color="#0AC012"/>
<stop offset="1" stop-color="#00CB00"/>
</linearGradient>
<linearGradient id="paint28_linear_536_3753" x1="39.9711" y1="89.345" x2="56.9401" y2="72.3594" gradientUnits="userSpaceOnUse">
<stop stop-color="#7F44E5"/>
<stop offset="0.33" stop-color="#4F768F"/>
<stop offset="0.66" stop-color="#24A342"/>
<stop offset="0.89" stop-color="#0AC012"/>
<stop offset="1" stop-color="#00CB00"/>
</linearGradient>
<linearGradient id="paint29_linear_536_3753" x1="40.4073" y1="89.7803" x2="57.3753" y2="72.7955" gradientUnits="userSpaceOnUse">
<stop stop-color="#7F44E5"/>
<stop offset="0.33" stop-color="#4F768F"/>
<stop offset="0.66" stop-color="#24A342"/>
<stop offset="0.89" stop-color="#0AC012"/>
<stop offset="1" stop-color="#00CB00"/>
</linearGradient>
<linearGradient id="paint30_linear_536_3753" x1="45.7025" y1="95.0703" x2="62.6712" y2="78.0855" gradientUnits="userSpaceOnUse">
<stop stop-color="#7F44E5"/>
<stop offset="0.33" stop-color="#4F768F"/>
<stop offset="0.66" stop-color="#24A342"/>
<stop offset="0.89" stop-color="#0AC012"/>
<stop offset="1" stop-color="#00CB00"/>
</linearGradient>
<linearGradient id="paint31_linear_536_3753" x1="44.7053" y1="85.6317" x2="57.4633" y2="72.8821" gradientUnits="userSpaceOnUse">
<stop/>
<stop offset="0.04" stop-opacity="0.93"/>
<stop offset="1" stop-opacity="0"/>
</linearGradient>
<linearGradient id="paint32_linear_536_3753" x1="43.7294" y1="84.6568" x2="56.4874" y2="71.9072" gradientUnits="userSpaceOnUse">
<stop/>
<stop offset="0.04" stop-opacity="0.93"/>
<stop offset="1" stop-opacity="0"/>
</linearGradient>
<linearGradient id="paint33_linear_536_3753" x1="44.5809" y1="85.507" x2="57.3156" y2="72.7367" gradientUnits="userSpaceOnUse">
<stop/>
<stop offset="0.04" stop-opacity="0.93"/>
<stop offset="1" stop-opacity="0"/>
</linearGradient>
<linearGradient id="paint34_linear_536_3753" x1="44.1241" y1="85.0508" x2="56.8612" y2="72.2805" gradientUnits="userSpaceOnUse">
<stop/>
<stop offset="0.04" stop-opacity="0.93"/>
<stop offset="1" stop-opacity="0"/>
</linearGradient>
<linearGradient id="paint35_linear_536_3753" x1="43.9995" y1="84.9264" x2="56.7367" y2="72.1561" gradientUnits="userSpaceOnUse">
<stop/>
<stop offset="0.04" stop-opacity="0.93"/>
<stop offset="1" stop-opacity="0"/>
</linearGradient>
<linearGradient id="paint36_linear_536_3753" x1="43.8542" y1="84.7812" x2="56.6122" y2="72.0316" gradientUnits="userSpaceOnUse">
<stop/>
<stop offset="0.04" stop-opacity="0.93"/>
<stop offset="1" stop-opacity="0"/>
</linearGradient>
<linearGradient id="paint37_linear_536_3753" x1="44.2486" y1="85.1752" x2="57.0057" y2="72.4256" gradientUnits="userSpaceOnUse">
<stop/>
<stop offset="0.04" stop-opacity="0.93"/>
<stop offset="1" stop-opacity="0"/>
</linearGradient>
<linearGradient id="paint38_linear_536_3753" x1="44.8301" y1="85.7769" x2="57.588" y2="73.0066" gradientUnits="userSpaceOnUse">
<stop/>
<stop offset="0.04" stop-opacity="0.93"/>
<stop offset="1" stop-opacity="0"/>
</linearGradient>
<linearGradient id="paint39_linear_536_3753" x1="44.4357" y1="85.362" x2="57.1936" y2="72.6132" gradientUnits="userSpaceOnUse">
<stop/>
<stop offset="0.04" stop-opacity="0.93"/>
<stop offset="1" stop-opacity="0"/>
</linearGradient>
<linearGradient id="paint40_linear_536_3753" x1="50.7272" y1="91.6474" x2="63.4847" y2="78.8984" gradientUnits="userSpaceOnUse">
<stop/>
<stop offset="0.04" stop-opacity="0.93"/>
<stop offset="1" stop-opacity="0"/>
</linearGradient>
<linearGradient id="paint41_linear_536_3753" x1="43.1275" y1="92.498" x2="60.0961" y2="75.5128" gradientUnits="userSpaceOnUse">
<stop stop-color="#7F44E5"/>
<stop offset="0.33" stop-color="#4F768F"/>
<stop offset="0.66" stop-color="#24A342"/>
<stop offset="0.89" stop-color="#0AC012"/>
<stop offset="1" stop-color="#00CB00"/>
</linearGradient>
<linearGradient id="paint42_linear_536_3753" x1="47.3634" y1="88.2869" x2="60.1002" y2="75.5169" gradientUnits="userSpaceOnUse">
<stop/>
<stop offset="0.04" stop-opacity="0.93"/>
<stop offset="1" stop-opacity="0"/>
</linearGradient>
<linearGradient id="paint43_linear_536_3753" x1="39.2652" y1="88.6396" x2="56.2338" y2="71.6544" gradientUnits="userSpaceOnUse">
<stop stop-color="#7F44E5"/>
<stop offset="0.33" stop-color="#4F768F"/>
<stop offset="0.66" stop-color="#24A342"/>
<stop offset="0.89" stop-color="#0AC012"/>
<stop offset="1" stop-color="#00CB00"/>
</linearGradient>
<linearGradient id="paint44_linear_536_3753" x1="43.5011" y1="84.4285" x2="56.2379" y2="71.6585" gradientUnits="userSpaceOnUse">
<stop/>
<stop offset="0.04" stop-opacity="0.93"/>
<stop offset="1" stop-opacity="0"/>
</linearGradient>
<linearGradient id="paint45_linear_536_3753" x1="53.2188" y1="79.9478" x2="53.2188" y2="70.3433" gradientUnits="userSpaceOnUse">
<stop/>
<stop offset="0.04" stop-opacity="0.93"/>
<stop offset="1" stop-opacity="0"/>
</linearGradient>
<linearGradient id="paint46_linear_536_3753" x1="44.9754" y1="83.2461" x2="44.9754" y2="70.3429" gradientUnits="userSpaceOnUse">
<stop stop-color="white"/>
<stop offset="0.1" stop-color="white" stop-opacity="0.81"/>
<stop offset="0.24" stop-color="white" stop-opacity="0.6"/>
<stop offset="0.37" stop-color="white" stop-opacity="0.42"/>
<stop offset="0.5" stop-color="white" stop-opacity="0.27"/>
<stop offset="0.63" stop-color="white" stop-opacity="0.15"/>
<stop offset="0.76" stop-color="white" stop-opacity="0.07"/>
<stop offset="0.88" stop-color="white" stop-opacity="0.02"/>
<stop offset="1" stop-color="white" stop-opacity="0"/>
</linearGradient>
<linearGradient id="paint47_linear_536_3753" x1="34.7178" y1="84.0966" x2="51.6865" y2="67.1114" gradientUnits="userSpaceOnUse">
<stop stop-color="#7F44E5"/>
<stop offset="0.33" stop-color="#4F768F"/>
<stop offset="0.66" stop-color="#24A342"/>
<stop offset="0.89" stop-color="#0AC012"/>
<stop offset="1" stop-color="#00CB00"/>
</linearGradient>
<linearGradient id="paint48_linear_536_3753" x1="40.8225" y1="83.2461" x2="40.8225" y2="70.3433" gradientUnits="userSpaceOnUse">
<stop stop-color="white"/>
<stop offset="0.1" stop-color="white" stop-opacity="0.81"/>
<stop offset="0.24" stop-color="white" stop-opacity="0.6"/>
<stop offset="0.37" stop-color="white" stop-opacity="0.42"/>
<stop offset="0.5" stop-color="white" stop-opacity="0.27"/>
<stop offset="0.63" stop-color="white" stop-opacity="0.15"/>
<stop offset="0.76" stop-color="white" stop-opacity="0.07"/>
<stop offset="0.88" stop-color="white" stop-opacity="0.02"/>
<stop offset="1" stop-color="white" stop-opacity="0"/>
</linearGradient>
</defs>
</svg>
