<svg width="29" height="21" viewBox="0 0 29 21" fill="none" xmlns="http://www.w3.org/2000/svg">
<circle cx="5" cy="5" r="5" transform="matrix(-1 0 0 1 26.2578 10.7871)" fill="#24A342"/>
<path d="M25.6757 0.621719C26.7088 0.230669 27.8632 0.751097 28.2543 1.78413C28.6453 2.81716 28.1249 3.97161 27.0918 4.36266L25.6757 0.621719ZM17.8194 19.7547C16.3449 17.204 15.9953 13.3348 17.0794 9.73694C18.194 6.03742 20.8761 2.43861 25.6757 0.621719L27.0918 4.36266C23.5899 5.6883 21.7089 8.23695 20.9093 10.8909C20.079 13.6465 20.4639 16.3368 21.2824 17.7527L17.8194 19.7547Z" fill="#24A342"/>
<circle cx="5" cy="5" r="5" transform="matrix(-1 0 0 1 10.2578 10.7871)" fill="#24A342"/>
<path d="M9.67573 0.621719C10.7088 0.230669 11.8632 0.751097 12.2543 1.78413C12.6453 2.81716 12.1249 3.97161 11.0918 4.36266L9.67573 0.621719ZM1.81943 19.7547C0.344864 17.204 -0.00467905 13.3348 1.07937 9.73694C2.19404 6.03742 4.87607 2.43861 9.67573 0.621719L11.0918 4.36266C7.58991 5.6883 5.70894 8.23695 4.9093 10.8909C4.07904 13.6465 4.46386 16.3368 5.2824 17.7527L1.81943 19.7547Z" fill="#24A342"/>
</svg>
