<svg width="36" height="35" viewBox="0 0 36 35" fill="none" xmlns="http://www.w3.org/2000/svg">
<path d="M35.7378 13.0126C35.5827 12.5345 35.2904 12.1127 34.8973 11.7996C34.5042 11.4865 34.0277 11.2959 33.5271 11.2517L24.02 10.4321L20.2933 1.57006C20.0993 1.10506 19.772 0.707853 19.3527 0.428466C18.9334 0.149079 18.4408 0 17.937 0C17.4331 0 16.9405 0.149079 16.5212 0.428466C16.1019 0.707853 15.7746 1.10506 15.5806 1.57006L11.8651 10.4321L2.3468 11.2565C1.84421 11.2987 1.36527 11.4884 0.970051 11.8017C0.57483 12.1151 0.280918 12.5381 0.125173 13.0178C-0.0305722 13.4976 -0.0412175 14.0126 0.0945721 14.4983C0.230362 14.9841 0.506541 15.4189 0.888477 15.7483L8.10967 22.0586L5.94539 31.4297C5.83095 31.9201 5.8636 32.4333 6.03927 32.9053C6.21494 33.3772 6.52583 33.7869 6.93307 34.0831C7.34031 34.3793 7.82583 34.5489 8.32893 34.5707C8.83203 34.5924 9.33039 34.4654 9.76169 34.2055L17.9257 29.243L26.1074 34.2055C26.5387 34.4654 27.0371 34.5924 27.5402 34.5707C28.0433 34.5489 28.5288 34.3793 28.936 34.0831C29.3433 33.7869 29.6542 33.3772 29.8298 32.9053C30.0055 32.4333 30.0382 31.9201 29.9237 31.4297L27.761 22.049L34.9806 15.7483C35.3625 15.4178 35.6381 14.9817 35.7729 14.4949C35.9076 14.0081 35.8954 13.4924 35.7378 13.0126ZM33.3014 13.8129L26.0818 20.1137C25.7304 20.4193 25.469 20.815 25.3258 21.2581C25.1825 21.7012 25.1627 22.175 25.2686 22.6285L27.4377 32.0156L19.2624 27.0531C18.8636 26.8102 18.4056 26.6817 17.9386 26.6817C17.4716 26.6817 17.0136 26.8102 16.6147 27.0531L8.45064 32.0156L10.6053 22.6349C10.7112 22.1814 10.6914 21.7076 10.5482 21.2645C10.4049 20.8214 10.1435 20.4257 9.7921 20.1201L2.56931 13.8226C2.56873 13.8178 2.56873 13.8129 2.56931 13.8081L12.0844 12.9853C12.549 12.9444 12.9936 12.7774 13.3702 12.5023C13.7468 12.2273 14.0411 11.8546 14.2215 11.4246L17.937 2.57376L21.6508 11.4246C21.8312 11.8546 22.1255 12.2273 22.5021 12.5023C22.8787 12.7774 23.3233 12.9444 23.7879 12.9853L33.3046 13.8081V13.8194L33.3014 13.8129Z" fill="white"/>
</svg>
