<svg width="41" height="40" viewBox="0 0 41 40" fill="none" xmlns="http://www.w3.org/2000/svg">
<path d="M4.12793 36.4595C4.12793 29.2679 9.99718 23.4381 17.2373 23.4381C24.4774 23.4381 30.3466 29.2679 30.3466 36.4595H27.0693C27.0693 31.0659 22.6673 26.6935 17.2373 26.6935C11.8072 26.6935 7.40527 31.0659 7.40527 36.4595H4.12793ZM17.2373 21.8104C11.8051 21.8104 7.40527 17.4401 7.40527 12.0444C7.40527 6.64863 11.8051 2.27832 17.2373 2.27832C22.6695 2.27832 27.0693 6.64863 27.0693 12.0444C27.0693 17.4401 22.6695 21.8104 17.2373 21.8104ZM17.2373 18.5551C20.8587 18.5551 23.792 15.6415 23.792 12.0444C23.792 8.44721 20.8587 5.53367 17.2373 5.53367C13.6158 5.53367 10.6826 8.44721 10.6826 12.0444C10.6826 15.6415 13.6158 18.5551 17.2373 18.5551ZM30.8115 24.582C35.3682 26.622 38.54 31.1728 38.54 36.4595H35.2626C35.2626 32.4945 32.8838 29.0814 29.4663 27.5514L30.8115 24.582ZM29.6849 6.20624C32.9593 7.54715 35.2626 10.7481 35.2626 14.4859C35.2626 19.1576 31.6644 22.9908 27.0693 23.4016V20.1251C29.8496 19.7306 31.9853 17.3571 31.9853 14.4859C31.9853 12.2386 30.677 10.2963 28.7751 9.36904L29.6849 6.20624Z" fill="white"/>
</svg>
